<svg id="Слой_1" data-name="Слой 1" xmlns="http://www.w3.org/2000/svg" width="151.22mm" height="88.56mm" viewBox="0 0 428.66 251.03"><defs><style>.cls-1{fill:none;}.cls-1,.cls-2{stroke:#464646;stroke-miterlimit:10;stroke-width:0.25px;}.cls-2{fill:#333a57;}</style></defs><title>back</title><path class="cls-1" d="M401,364.78a94.33,94.33,0,1,0,18.3,22.43h0A94.32,94.32,0,0,0,401,364.78Z" transform="translate(-36.96 -309.35)"/><path class="cls-2" d="M37,547.33H326.09l-1,10.28c1.83,1.37,7.81,2.7,16,2.64s14.14-1.49,16-2.89l-1.21-10.76,0.79-.12a112.29,112.29,0,0,0,26.64-7.38l0.73-.3,4.5,9.87c2.27,0.27,8.11-1.56,15.17-5.71s11.5-8.36,12.37-10.48l-6.44-8.73,0.62-.49a112.29,112.29,0,0,0,19.4-19.69l0.48-.63,8.82,6.29c2.1-.9,6.24-5.41,10.28-12.53s5.77-13,5.47-15.26l-9.95-4.34,0.29-.74a113.64,113.64,0,0,0,6.94-26.75l0.1-.79,10.8,1c1.37-1.83,2.7-7.81,2.64-16-0.05-6.71-2.38-13.84-3.11-15.91l-10.54,1.18-0.12-.78a112.12,112.12,0,0,0-7.38-26.64L444,391l9.64-4.4a71.24,71.24,0,0,0-5.5-15.3c-3.69-7-8.26-11.46-10.46-12.34L429,365.37l-0.49-.62a112.21,112.21,0,0,0-19.69-19.4l-0.63-.48,6.16-8.64c-1.45-1.64-6.55-7.15-12.39-10.46-7.12-4-13-5.78-15.26-5.47l-4.35,9.95-0.74-.29A113.65,113.65,0,0,0,354.84,323l-0.79-.1,1-10.58c-2.08-.7-9.25-2.91-16-2.86-8.18.06-14.14,1.49-15.95,2.89l1.2,10.72H37" transform="translate(-36.96 -309.35)"/><path class="cls-1" d="M19.11,455.82" transform="translate(-36.96 -309.35)"/><path class="cls-1" d="M19.11,319.41" transform="translate(-36.96 -309.35)"/></svg>