<svg id="_1" data-name="1" xmlns="http://www.w3.org/2000/svg" viewBox="0 0 58 56.5"><defs><style>.cls-1{fill:#fefefe;fill-rule:evenodd;}</style></defs><title>Монтажная область 2</title><path class="cls-1" d="M53.84,39.5v-.84a1.08,1.08,0,0,0,0-.59V38a3.31,3.31,0,0,0,.5-.4,4.9,4.9,0,0,0,.71-.95c-.37.28-.79.6-1.21.89v-.78a1.86,1.86,0,0,0,.4-.2c.38-.22.82-.63,1.21-.3.57.48-.58,1.34-.87,1.64s.21.08.28.38a1.11,1.11,0,0,1-.56,1.09,1.18,1.18,0,0,1-.47.14Zm0-3.24a2.75,2.75,0,0,0,1.24-.62c.32-.3.89-1.26.41-1.66-.19,0-.23.23-.4.26-.38-.27,1-1.4.42-2-.1-.1-.26,0-.36.12,0-.5.76-1,.44-1.56-.32,0,0-.45-.14-.64a.84.84,0,0,0-.74-.35c-.42.09-.24.68-.38.68s-.37-.17-.48,0v.6a2.94,2.94,0,0,1,.31.63c.06.25-.16.68-.31.58v2.14c.18-.46.36-1,.43-1.15a10.63,10.63,0,0,0,.65-3.12c.43.72-.46,3.28-.71,4a5.69,5.69,0,0,0-.37.88v.19A4.63,4.63,0,0,0,55,34.8a3.29,3.29,0,0,1-.7.47,3,3,0,0,0-.47.31v.68Zm0-6.44V26.56a7,7,0,0,1,.26,2.14,9.14,9.14,0,0,1-.26,1.12Zm0-4.13V24.46c.12-.08.15-.46,0-.64l0,0V21.83a.89.89,0,0,1,.74.11c.2.12,0,.62.34.55.51.45,0,1.14.11,1.61.06-.13.18-.3.3-.24.74.32-.19,1.86.26,2,.15-.08.09-.35.29-.38.59.2.36,1.31.17,1.7a2.85,2.85,0,0,1-1,1,.74.74,0,0,0-.22.5c.32.14.53-.17.7-.37s.56-.88,1-.7c.69.25-.1,1.46-.27,1.85s.23,0,.39.25a1.13,1.13,0,0,1-.16,1.21,1.33,1.33,0,0,1-.45.32,2.29,2.29,0,0,0-.16-.78,1.07,1.07,0,0,0-.27-.72,3.42,3.42,0,0,0,.31-.51,5,5,0,0,0,.35-1.14c-.28.44-.62.95-.95,1.41a1,1,0,0,0-1.19.06,5,5,0,0,1,1-2.49,3.37,3.37,0,0,0,.5-.69c-.11.13-.86.93-1,.86a6,6,0,0,1,0-1.14c0-.79,0-3.51-.67-4a10.65,10.65,0,0,1,.43,3.16c-.05.33.06,2.52-.24,1.89-.2-.41-.09-.9-.34-1.34l-.08-.11Zm0-4.35a1.16,1.16,0,0,1,.64,0c.16-.57.3-1.19.42-1.73A5,5,0,0,1,55,20.81a3.48,3.48,0,0,1-.14.69,1,1,0,0,1,.39.52,2.07,2.07,0,0,1,.42.75,1.81,1.81,0,0,0,.44-.6,1.13,1.13,0,0,0-.27-1.2c-.24-.17-.49.49-.45-.1,0-.42.35-1.84-.38-1.83-.51,0-.59.61-.73,1-.08.22-.16.51-.38.59v.67Zm0-1.37V17.4a1.86,1.86,0,0,1,.45,1.44A2.63,2.63,0,0,1,53.84,20Zm0-2.58V20l-.11.17a.74.74,0,0,0,0,.54l.15,0v.67a1,1,0,0,0-.46.29,4.81,4.81,0,0,1,.09-2.56,3.45,3.45,0,0,0,.23-.83c-.06.16-.48,1.18-.64,1.17a5.9,5.9,0,0,1-.35-1.08,21.47,21.47,0,0,0-1-2.22V14.92c.45.3.24,1,.52,1.41,0-.14.06-.34.2-.33.8,0,.46,1.81.92,1.77.11-.13,0-.36.14-.46a.47.47,0,0,1,.29.09Zm0,4.43v1.95c-.26-.34-.79-.5-.67-1,0-.2.3-.1.47-.16s-.23-.54.13-.77l.07,0Zm0,2.63c-.06,0-.16,0-.27-.19-.22-.37-.41-.74-.84-.81-1,.15-.21.94-.38,1.39-.08.22-.42-.14-.59.1v.73l.06.09A13.55,13.55,0,0,1,53,27.14c.29.41.71.82.59,1.42-.6,0-.48-1-1-1.17-1-.5-.67.87-.43,1.34a.54.54,0,0,0-.36,0v1.08l.09.18a4.12,4.12,0,0,0,.6.64,1.44,1.44,0,0,1,.81-.1h0a3.5,3.5,0,0,0-.14-.43c-.31-.78-.91-1.36-.81-2.24.19.93.86,1.5,1.11,2.38a.57.57,0,0,1,.38-.24l0-.12V26.56a3.67,3.67,0,0,0-.67-1.31,1.65,1.65,0,0,1-.5-1.22,5.52,5.52,0,0,0,1.18,1.66V24.46Zm0,6v.6a.54.54,0,0,1,0-.59Zm0,1.8a.39.39,0,0,1-.12-.26c-.08-.43-.14-.84-.52-1.05-1-.2-.51.81-.82,1.17-.16.18-.36-.31-.62-.09v1.2a11.35,11.35,0,0,1,.45,1.26c.14.48.39,1,.08,1.54-.53-.24-.16-1-.54-1.42v2.86a.6.6,0,0,1,.25,0,10.6,10.6,0,0,0,.73-1.14A5.36,5.36,0,0,0,53,32.84a1.66,1.66,0,0,1-.07-1.32,6.76,6.76,0,0,0,.6,2.11c.08.5-.18.92-.13,1.38s.23,0,.43-.55V32.31Zm0,2.78v.19l-.05,0,.05-.17Zm0,.5v.68h0a.72.72,0,0,0-.37.39.38.38,0,0,0,.39.09v.78l-.2.14a1.07,1.07,0,0,0-1.08-.42,6,6,0,0,1,1.28-1.66Zm0,2.4v.08l0-.07Zm0,.67v.84h-.09a2.16,2.16,0,0,0,.09-.84v0Zm-2.08,5.16v-.94a.45.45,0,0,1,.32.19c.2.28,0,.54-.32.75Zm0-1.28v-3.2a.57.57,0,0,0,.17-.35c0-.39-.35-.79,0-1.09.13-.12.26.08.41.13s.09-.5.46-.48a.76.76,0,0,1,.55.46c.09.19-.28.45,0,.57.15.57-.58.78-.69,1.2.1-.06.27-.12.33,0,.38.6-1,1.22-.76,1.54.15,0,.24-.2.39-.12.33.44-.36,1.11-.69,1.29l-.14.07Zm0-19.36V21.88a10,10,0,0,1,.78.71l.16.19c0,.06,0,.12,0,.19a1.59,1.59,0,0,0-.67.32l-.25-.1Zm0-1.6a6.91,6.91,0,0,1,1,.91.59.59,0,0,1,.34-.28v-.07A9.37,9.37,0,0,0,53,21a6.45,6.45,0,0,0-1.23-2.22v1.39a1.33,1.33,0,0,1,.69.89c-.3.09-.49-.11-.69-.32v.87Zm0-3.31.08.05c.38.33.44.82.78,1.14.5.47-.36-1.53-.42-1.86s-.27-.7-.43-1v1.71Zm0-4,0,0a1.71,1.71,0,0,1,.74.7,2.09,2.09,0,0,0,.28-.79,1.11,1.11,0,0,0-.61-1.06c-.27-.09-.32.55-.44.13Zm0-1v1a1,1,0,0,0-.34-.25,3.51,3.51,0,0,0-.07-.75,5,5,0,0,0-.41-1.12c0,.55.09,1.19.11,1.78a1.14,1.14,0,0,0-1,.5,8.28,8.28,0,0,1-.42-1V10.59a2.34,2.34,0,0,1,.52,1A3,3,0,0,1,50,13a.74.74,0,0,0,.13.53c.33-.09.31-.47.32-.74,0-.45-.09-1,.39-1.21.69-.24.81,1.21.91,1.62l0,.08Zm0,1.63-.13-.07c-.27.18-.28-.35-.51-.39a.84.84,0,0,0-.78.23c-.26.35.24.68.14.77s-.41.12-.38.32c.06.52.66.44,1,.71s.37.93-.13.53c-.33-.27-.64-.55-1.06-.45a.78.78,0,0,0-.31.27v.36c.12.27.43.53.43.81s-.27.09-.43.18v.62a.6.6,0,0,0,.25.24,13.27,13.27,0,0,1,1.55.86l.35.22V18.75a3.31,3.31,0,0,0-.82-.67,1.61,1.61,0,0,1-.89-1,5.71,5.71,0,0,0,1.71,1.15V16.56A8.85,8.85,0,0,0,50.7,14.8c.34.11.72.67,1.05,1.31V14.92Zm0,5.79v.87a3.22,3.22,0,0,1-.74-.8,2.11,2.11,0,0,0,.74,1.09v1.31a1.66,1.66,0,0,1-.44-.24c-.69-.57-.88-1.24-.17-1.23-.38-.35-1.14-1.53-.06-1.41a1,1,0,0,1,.67.41Zm0,4.24v.73a.76.76,0,0,1-.06-.61.41.41,0,0,1,.06-.12Zm0,3.74v1.08c-.26-.53-.27-1,0-1.08Zm0,3.39v1.2l-.18-.43a.72.72,0,0,1,.12-.7l.07-.07Zm0,2.58v2.86l-.15,0c.06-.92-.39-1.69-.25-2.63-.38.79,0,1.55,0,2.39a3.46,3.46,0,0,1,0,.43l-.11.12a1.74,1.74,0,0,0-.65-.15,7.76,7.76,0,0,1-.4-.93c-.16-.89.12-1.53.65-1-.07-.52.11-1.92.85-1.11l0,0Zm0,4.68c-.13.13-.28.15-.27-.18s.06-.73-.22-1c-.78-.39-.6.56-.94.79-.18.13-.25-.43-.57-.18a.69.69,0,0,0-.15.16v1a9.08,9.08,0,0,1,.09,1A2.17,2.17,0,0,1,49.6,42v3.35a2.19,2.19,0,0,0,.87.07.93.93,0,0,0,.7-.78c0-.26-.59-.12-.16-.38.15-.09.48-.24.75-.43v-.94A2.25,2.25,0,0,0,51,43c-.23.06-.52.17-.69-.09a.6.6,0,0,1,.39-.24,2.63,2.63,0,0,0,1.06-.17v-3.2ZM49.6,31.15V29.78a10.62,10.62,0,0,0,0-3V25.4a6.44,6.44,0,0,1,.53,2.87,6.44,6.44,0,0,1-.53,2.88Zm0-15v-.47l.08,0a1.77,1.77,0,0,0,.06.32l-.14.11Zm0-.76.11.06a.64.64,0,0,1,.2-.28,1.1,1.1,0,0,1,0-.42c-.09-.21-.18-.42-.28-.62Zm0-4.85v2.84a3.48,3.48,0,0,1-.19-1.36,3.47,3.47,0,0,0,0-.86c0,.17-.11,1.28-.26,1.31a5.73,5.73,0,0,1-.65-.92c-.2-.26-.62-.78-1.09-1.31V9.77l.08.07c0-.14,0-.34.09-.38.77-.21,1,1.58,1.4,1.4.06-.16-.14-.33,0-.48a.6.6,0,0,1,.64.22Zm0,3.6L49.52,14a5.94,5.94,0,0,0-2.13-1.89v1.29l.32.08c.47.14,1,.19,1.32.74-.5.34-1-.45-1.51-.26l-.13,0v.87a2.48,2.48,0,0,0,.6.42c-.68.21-.3.79.53,1.12a3,3,0,0,0,.77.11,1.59,1.59,0,0,1,.32-.34v-.47l0,0c-.72-.41-1.53-.49-2-1.24a9.74,9.74,0,0,0,2,1V14.19Zm0,2.65v.36a.38.38,0,0,1,0-.36Zm0,1.35v.62a.82.82,0,0,1-.11-.36.25.25,0,0,1,.11-.26Zm0,7.22v1.38a2.49,2.49,0,0,0-.42-1.23h0l-1.69.18q0-.34-.11-.69V23.16a18.81,18.81,0,0,1,.46,2.11l1.48-.15.14.14a1,1,0,0,1,.13.15Zm0,4.37v1.38a1,1,0,0,1-.13.15l-.14.14-1.49-.15a18.8,18.8,0,0,1-.46,2.11V31.52q.06-.34.11-.69l1.69.18a2.49,2.49,0,0,0,.42-1.23Zm0,9.17v1c0-.2-.06-.4-.09-.6a.55.55,0,0,1,.09-.39Zm0,3v3.35c-.42-.08-.82-.15-.9,0,.08.15.26.11.27.29-.07.59-1,.5-1.59.61V43.6l.22.06c.22-.47-.09-.92-.06-1.34,0-.78.42-1.25.77-.72.05-.45.49-1.58.95-.73.3.42-.23,1,.18,1.35A.86.86,0,0,0,49.6,42Zm-2.22,6.58v-.33h.37l-.37.33Zm0-9.94v-.91a3.51,3.51,0,0,0,.49-1.83h0l-.49-.22V35.2l.84.38.05.19c.21.73-.51,2.17-.89,2.86Zm0-17.27v-.46l.49-.22a3.52,3.52,0,0,0-.49-1.83v-.91c.39.69,1.1,2.13.9,2.86l-.05.19-.84.38Zm0-9.54.25.06c.46.19.67.65,1.08.84.62.29-.79-1.35-1-1.64l-.37-.46Zm0-2v.53a8.19,8.19,0,0,0-1.21-1.14V8.67a.15.15,0,0,0,.23,0c.62,0,.65.8,1,1.13Zm0,.85a10.81,10.81,0,0,0-1.21-1.24v.93l.22,0c.31.1.63.77,0,.54l-.25-.1v.77c.39.12.79.15,1.21.24v-1.2Zm0,1.53v1.29c-.4-.1-.81-.16-1.21-.22V11.78a2.93,2.93,0,0,0,.53.15,3.08,3.08,0,0,1,.68.23Zm0,1.88v.87c-.33-.32-.53-.7,0-.87Zm0,3.9v.91c-.12-.26-.26-.52-.42-.79a10.1,10.1,0,0,0-.79-1.18v-.65a10,10,0,0,1,1.16,1.62l.05.09Zm0,3v.46l-.52.23q.29.77.52,1.57V25a18.28,18.28,0,0,0-1.06-3.67l1.06-.47Zm0,10.62V33.4q-.22.8-.52,1.57l.52.23v.46l-1.06-.47a18.31,18.31,0,0,0,1.06-3.67Zm0,6.2v.91l-.05.09a9.94,9.94,0,0,1-1.16,1.62v-.65A10.1,10.1,0,0,0,47,38.51c.16-.27.3-.54.42-.79Zm0,5.88v2.65a.85.85,0,0,0-.33.12c-.2.06-.4.27-.63.14A6.6,6.6,0,0,0,47,44.32c0-.58.07-.78.42-.72Zm0,4.64v.33q-.59.52-1.21,1V48.24ZM46.18,7.91V7a.17.17,0,0,1,.15-.12c.43,0,.76.39.92.78a1.86,1.86,0,0,1,0,.75A1.91,1.91,0,0,0,46.45,8,1,1,0,0,0,46.18,7.91Zm0-1v1a1,1,0,0,0-.32,0,3.47,3.47,0,0,0-.3-.64,4.87,4.87,0,0,0-.76-.91c.22.49.48,1.07.69,1.62a1.13,1.13,0,0,0-.71.91,4.67,4.67,0,0,1-1.44-2.07A3.43,3.43,0,0,0,43,6c.05.16.32,1.24.19,1.32L42.77,7V5.24a2,2,0,0,1,1.08.85,2.94,2.94,0,0,1,.34,1.39.73.73,0,0,0,.3.45c.28-.2.14-.55.06-.81-.13-.43-.43-1,0-1.28.57-.47,1.16.85,1.39,1.21s.19.09.27-.09Zm0,1.71c-.12-.08-.23-.27-.38-.25a.85.85,0,0,0-.68.46c-.15.41.43.57.36.69s-.35.24-.27.42c.18.39.59.28,1,.32V9.38a7.25,7.25,0,0,0-.67-.51,1.29,1.29,0,0,1,.67.29V8.67Zm0,2.13v.77a2.2,2.2,0,0,1-.61-.29,1.24,1.24,0,0,0,.61.49v1.44l-.21,0a.7.7,0,0,1-.52-.47c-.17-.45.45-.33.38-.59-.14-.46-1.22-.59-.54-1.33a1,1,0,0,1,.9,0Zm0,5.42v.65a2.62,2.62,0,0,0-1-.92h0l-1.38,1q-.48-.61-1-1.18v-.61q.56.58,1.08,1.21l1.21-.88.19,0a2.15,2.15,0,0,1,.93.67Zm0,23.48v.65a2.16,2.16,0,0,1-.93.67l-.19,0-1.21-.88q-.51.63-1.08,1.21v-.61q.52-.57,1-1.18l1.38,1a2.62,2.62,0,0,0,1-.92Zm0,8.54v1.33a27.61,27.61,0,0,1-3.4,2.27V45.32l.56-.44v3.36Zm-3.4-12.62v-.93a15,15,0,0,0,0-12.82v-.93a15.4,15.4,0,0,1,0,14.68Zm0-25.34V9.89a7.54,7.54,0,0,0,1.93.26l.22,0,.1.17a1.69,1.69,0,0,0-.33.67,2.93,2.93,0,0,1-.75.16c-.89,0-1.44-.43-.87-.87l-.31-.05Zm0-.5c.7.15,1.37,0,2.06.15a.62.62,0,0,1,.1-.43l-.06-.11a8.67,8.67,0,0,0-.78-.79,7.24,7.24,0,0,0-1.33-.71v.81a1.17,1.17,0,0,1,.94.28c-.22.31-.58.2-.94.16v.64Zm0-2.17.13,0c.27,0,.14-.12-.13-.33Zm0-2.38V7a5.12,5.12,0,0,1-.46-.36c-.66-.41-2.93-1.82-3.7-1.54a10,10,0,0,1,2.85,1.29c.15.13.9.57,1.31.88v.31c-.39-.08-.71-.38-1.17-.39a6.32,6.32,0,0,1-2.13.17,1.56,1.56,0,0,0,1.28.2,3.88,3.88,0,0,1,2,.3v.81l-.55.05A13,13,0,0,0,40.47,9a.68.68,0,0,1-.64-.26c-.3-.36.31-.47.16-.68C39.71,7.7,38.65,8,39,7c.28-.34.69-.31,1.11-.31.63,0,.11-.51-.21-.5s-.87.45-1.23.07c-.14-.14.08-.31.12-.49s-.57-.08-.57-.52a.87.87,0,0,1,.48-.67c.21-.11.53.3.64,0,.64-.21.92.64,1.4.76-.07-.12-.15-.31,0-.39.66-.47,1.45,1.14,1.79.82,0-.17-.24-.27-.16-.45a.49.49,0,0,1,.42-.1Zm0,3.9v.64l-.35-.1a1.62,1.62,0,0,0,.35.22v.39c-.58-.14-1.34-.54-.57-1a.74.74,0,0,1,.57-.12Zm0,6a18.92,18.92,0,0,0-1.61-1.48L42,12.47l0-.19c-.19-.77-1.65-1.71-2.3-2.08a10.06,10.06,0,0,0-1.77-.82v.44a9.45,9.45,0,0,1,1.56.73,5,5,0,0,1,2.1,1.82l-1,1.38a18.51,18.51,0,0,1,2.19,2v-.61Zm0,5.78v.93a15,15,0,0,0-4.85-5.79v-.51a15.47,15.47,0,0,1,4.85,5.37Zm0,13.75v.93A15.46,15.46,0,0,1,37.92,41v-.51a15,15,0,0,0,4.85-5.79Zm0,6.1a18.56,18.56,0,0,1-2.19,2l1,1.38h0A5,5,0,0,1,39.48,46a9.48,9.48,0,0,1-1.56.74v.44a10.07,10.07,0,0,0,1.77-.82c.64-.37,2.1-1.32,2.3-2.08l0-.19-.88-1.21a19,19,0,0,0,1.62-1.48v-.61Zm0,4.53v6.51A27.42,27.42,0,0,1,37.92,54V51.27l.69.59a1.28,1.28,0,0,1,0,.19.5.5,0,0,1,0,.13.25.25,0,0,1-.07.08l-.09.05-.13,0H38s0,0,0,.09a.75.75,0,0,0,.07.22l.06.13,0,.08,0,0,0,0h.2l.13,0,.14,0a1.28,1.28,0,0,0,.31-.18.76.76,0,0,0,.2-.26,1.25,1.25,0,0,0,.11-.39,3.76,3.76,0,0,0,0-.56l-.05-2.56a.4.4,0,0,0,0-.11.07.07,0,0,0-.05,0h-.11l-.19.07-.18.08-.1.06a.16.16,0,0,0,0,.06.19.19,0,0,0,0,.07l.05,1.17c0,.14,0,.27,0,.39s0,.25,0,.38h0l-.27-.26-.28-.26-.21-.19V48.17a22.13,22.13,0,0,0,4.85-2.85ZM37.92,39a1.54,1.54,0,0,0,.5-.31l.66-.59a1.43,1.43,0,0,0,.48-.89,1,1,0,0,0-.26-.85l-1.38-1.45V39Zm0-15.89.27.24a.76.76,0,0,0,.25.15l2.83,1.1a.79.79,0,0,0,.88-.21l.13-.14a.79.79,0,0,0,.12-.9L41,20.65a.77.77,0,0,0-.18-.23l-1.77-1.6c.28-.31.11-.92-.37-1.36a1.58,1.58,0,0,0-.79-.4Zm0-13.73v.44a2.11,2.11,0,0,0-1.06-.17h0l-.69,1.55a18.17,18.17,0,0,0-1.77-.61v-.44q.79.22,1.55.51l.61-1.36.19-.05a2.22,2.22,0,0,1,1.18.13Zm0,6.19v.51a14.93,14.93,0,0,0-3.53-1.86v-.45a15.34,15.34,0,0,1,3.53,1.79Zm0,1.49a.65.65,0,0,0-.6.16l-1.63-1.48a.8.8,0,0,0-1.13.06l-.16.18v3.94l.26.24-.26.28v3.7l2-2.37,1.49,1.35V17.05Zm0,17.86V39a1.36,1.36,0,0,1-.44.08,1,1,0,0,1-.82-.34L34.39,36.1V31.21l3.53,3.7Zm0,5.56V41a15.34,15.34,0,0,1-3.53,1.79v-.45a14.92,14.92,0,0,0,3.53-1.86Zm0,6.26v.44a2.22,2.22,0,0,1-1.18.13l-.19-.05-.61-1.36q-.76.29-1.55.51V46a18.24,18.24,0,0,0,1.77-.61l.69,1.55a2.11,2.11,0,0,0,1.06-.17Zm0,1.44v2.17l-.67-.6-.08-.06-.09,0-.12,0-.19.08-.19.09a.2.2,0,0,0-.09.08.09.09,0,0,0,0,.09.52.52,0,0,0,.1.11l1.32,1.14V54a27.39,27.39,0,0,1-3.53.91V52.2l.41,1.66a.07.07,0,0,0,0,0l.07,0H35l.17,0,.17-.05.1,0,0,0a.07.07,0,0,0,0-.05l-.69-2.78.86-.21,0,0a.12.12,0,0,0,0-.06.36.36,0,0,0,0-.09,1.09,1.09,0,0,0,0-.13,1.16,1.16,0,0,0,0-.13l0-.08,0,0h0l-1.14.28V49.33A22,22,0,0,0,37.92,48.17Zm-3.53-38v.44q-.81-.23-1.65-.4V9.76q.83.16,1.65.39Zm0,3.63v.45a14.82,14.82,0,0,0-1.65-.5v-.43a15.28,15.28,0,0,1,1.65.48Zm0,2.2v3.94L33,18.68A.8.8,0,0,1,33,17.55L34.39,16Zm0,4.45v3.7L32.74,26V22.16l1.65-1.73Zm0,10.78V36.1l-1.65-1.92V29.49l1.65,1.73Zm0,11.12v.45a15.28,15.28,0,0,1-1.65.48v-.43a14.86,14.86,0,0,0,1.65-.5Zm0,3.64v.44q-.81.23-1.65.39v-.43q.84-.16,1.65-.4Zm0,3.36V50.4l-1.29.32,0,0a.12.12,0,0,0,0,.06.38.38,0,0,0,0,.09,1.38,1.38,0,0,0,0,.14l0,.13,0,.08,0,0h0l.86-.22.28,1.12V54.9q-.82.15-1.65.26v-5.5q.83-.13,1.65-.33ZM32.74,5.47V5a.41.41,0,0,0,.16,0A.35.35,0,0,0,33,4.86a.49.49,0,0,0,.09-.15,1.08,1.08,0,0,0,.06-.21,2,2,0,0,0,0-.27c0-.1,0-.21,0-.33s0-.27,0-.38a2.42,2.42,0,0,0,0-.29A1,1,0,0,0,33.1,3,.42.42,0,0,0,33,2.91a.3.3,0,0,0-.12-.07l-.15,0h0V2.33h0a1.11,1.11,0,0,1,.52.11.8.8,0,0,1,.32.31,1.38,1.38,0,0,1,.17.49,4.13,4.13,0,0,1,0,.66,3.36,3.36,0,0,1-.06.66,1.46,1.46,0,0,1-.19.5.9.9,0,0,1-.34.32A1.1,1.1,0,0,1,32.74,5.47ZM30.39,40.33c.54-1.07.87-2.45,0-4.87v4.87Zm2.35-38v.49a.38.38,0,0,0-.23.07.45.45,0,0,0-.14.2,1.27,1.27,0,0,0-.07.33,4.34,4.34,0,0,0,0,.46,4.46,4.46,0,0,0,0,.54,1.2,1.2,0,0,0,.08.34.36.36,0,0,0,.14.18.41.41,0,0,0,.21.05h0v.49h0a1.1,1.1,0,0,1-.52-.11.8.8,0,0,1-.32-.31,1.38,1.38,0,0,1-.17-.49,4,4,0,0,1,0-.66,3.27,3.27,0,0,1,.06-.66,1.46,1.46,0,0,1,.19-.5.89.89,0,0,1,.34-.32,1.09,1.09,0,0,1,.49-.11Zm0,7.43v.43L31.8,10,32,8.35h0a3.11,3.11,0,0,0-1.59-.47V7.46a3.44,3.44,0,0,1,1.89.6l.14.14-.16,1.48.48.08Zm0,3.53v.43a14.94,14.94,0,0,0-2.35-.37v-.42a15.33,15.33,0,0,1,2.35.36Zm0,8.87V26l-2.35,2.74V24.63l2.35-2.47Zm0,7.33-.92-1L30.39,30.2v1.24l2.35,2.74V29.49Zm0,13.35v.43a15.33,15.33,0,0,1-2.35.36V43.2a14.93,14.93,0,0,0,2.35-.37Zm0,3.54v.43l-.48.08.15,1.48-.14.14a3.44,3.44,0,0,1-1.89.6v-.42A3.11,3.11,0,0,0,32,48.21h0l-.18-1.69.94-.16Zm0,3.29v5.5q-1.16.15-2.35.2V53l.13,1.43a.07.07,0,0,0,0,0l.06,0h.29l.17,0,.11,0,.06,0a.07.07,0,0,0,0-.05L31,51.5l1.17-.1,0,0a.12.12,0,0,0,0-.05.37.37,0,0,0,0-.09,1.08,1.08,0,0,0,0-.14.67.67,0,0,0,0-.23.09.09,0,0,0-.09-.06L30.43,51h0V49.9a22.11,22.11,0,0,0,2.35-.24Zm-2.35-7V41.14a5.6,5.6,0,0,0,.68-4,6.16,6.16,0,0,1,.81,4.16,1.65,1.65,0,0,1-1.49,1.38Zm0-37.24V4.92l.1-.06a.42.42,0,0,0,.12-.16.55.55,0,0,0,0-.23.52.52,0,0,0,0-.2.36.36,0,0,0-.11-.15l-.11-.07V3.55a1.42,1.42,0,0,1,.33.05.88.88,0,0,1,.32.17.72.72,0,0,1,.2.28,1,1,0,0,1,.07.38,1.08,1.08,0,0,1-.09.44A.9.9,0,0,1,31,5.2a1.09,1.09,0,0,1-.38.2l-.21,0Zm0-2.54V2.38h.67l0,0a.3.3,0,0,1,0,.08,1.05,1.05,0,0,1,0,.12.6.6,0,0,1,0,.2s0,.06-.07.06ZM29.3,42.31c.25-.66.72-1.25,1.09-2V35.46a17.21,17.21,0,0,0-.89-2,3.86,3.86,0,0,1-.2,1.23v7.65ZM30.39,2.38v.53h-.44v.65h.44v.52l-.08,0A1.19,1.19,0,0,0,30,4h-.46a.12.12,0,0,1-.1,0,.2.2,0,0,1,0-.13V2.56a.2.2,0,0,1,0-.14.15.15,0,0,1,.12,0Zm0,2.54v.53l-.28,0-.27,0-.23,0-.16-.05-.08,0,0,0,0-.05a.73.73,0,0,1,0-.07s0-.06,0-.11a1,1,0,0,1,0-.11.29.29,0,0,1,0-.07l0,0h0l.07,0,.13.06.19.06a1.15,1.15,0,0,0,.27,0,1,1,0,0,0,.25,0l.09,0Zm0,2.54v.42a10.57,10.57,0,0,0-1.09-.06V7.4c.28,0,.67,0,1.09.06Zm0,5.48v.42q-.54,0-1.09,0V12.9q.55,0,1.09,0Zm0,11.69v4.16L29.3,30.06V25.77l1.09-1.15Zm0,5.57v1.24l-.53-.62.53-.62Zm0,10.94v1.55a2,2,0,0,0-.67.26c-.15-.69.25-1.13.67-1.82Zm0,2.06v.42q-.54,0-1.09,0v-.42q.55,0,1.09,0Zm0,5.48v.42c-.42,0-.82.06-1.09.06v-.42a10.65,10.65,0,0,0,1.09-.06Zm0,1.22V51a.2.2,0,0,0-.11.06.23.23,0,0,0,0,.18L30.39,53v2.36l-1.09,0V49.93ZM29.13,43a2.69,2.69,0,0,1,.17-.68V34.66c-.36,1.08-1.1,1.89-1.44,3.06v2.84A6.17,6.17,0,0,0,29.13,43ZM29.3,7.4v.42h0a10.16,10.16,0,0,0-1.4.09V7.49a11.31,11.31,0,0,1,1.4-.09Zm0,5.5v.42h0c-.47,0-.94,0-1.4.07V13c.46,0,.93-.06,1.4-.06Zm0,12.88v4.28l-1.44,1.68V27.29l1.44-1.52Zm0,17.47v.42h0c-.47,0-.94,0-1.4-.06v-.42c.46,0,.93.07,1.4.07Zm0,5.5v.42h0a11.31,11.31,0,0,1-1.4-.09v-.42a10.15,10.15,0,0,0,1.4.09Zm0,1.19v5.44h0q-.7,0-1.4,0v-.85h0a1.3,1.3,0,0,0,.46-.18.94.94,0,0,0,.31-.32,1.05,1.05,0,0,0,.14-.47.86.86,0,0,0,0-.31.84.84,0,0,0-.14-.27.82.82,0,0,0-.22-.2.86.86,0,0,0-.3-.11h0a.87.87,0,0,0,.27-.09.78.78,0,0,0,.37-.4,1.05,1.05,0,0,0,0-.69.71.71,0,0,0-.19-.29,1,1,0,0,0-.34-.2,1.68,1.68,0,0,0-.39-.09v-1q.69,0,1.4,0Zm-1.44,3.82.06-.08a.45.45,0,0,0,.06-.2.55.55,0,0,0,0-.22.4.4,0,0,0-.1-.15v.66Zm0-1.52A.43.43,0,0,0,28,52.1.47.47,0,0,0,28,51.9a.5.5,0,0,0,0-.18.34.34,0,0,0-.09-.15l-.07-.06v.72Zm0-9.64v-.73a5.25,5.25,0,0,0,.66,1,2.14,2.14,0,0,1-.66-.27Zm0-16.64.76-.8-.76-.8V26Zm0-20.51V5l.06,0a.62.62,0,0,0,.22-.19.82.82,0,0,0,.12-.28,1.54,1.54,0,0,0,0-.33,1.22,1.22,0,0,1-.26.12l-.19,0V3.83a.77.77,0,0,0,.22,0,.79.79,0,0,0,.21-.11,2.64,2.64,0,0,0,0-.42A.85.85,0,0,0,28.18,3,.34.34,0,0,0,28,2.84a.44.44,0,0,0-.19,0V2.33h0a1.25,1.25,0,0,1,.37,0,.83.83,0,0,1,.27.14.8.8,0,0,1,.19.22,1.19,1.19,0,0,1,.12.29,2,2,0,0,1,.06.34c0,.12,0,.25,0,.39s0,.25,0,.38a2.19,2.19,0,0,1-.07.39,1.75,1.75,0,0,1-.15.36,1.07,1.07,0,0,1-.24.3,1.09,1.09,0,0,1-.36.2Zm0,32.27A4.48,4.48,0,0,0,27.67,39a6.39,6.39,0,0,0,.18,1.55V37.72Zm0-35.39V2.8h0a.44.44,0,0,0-.19,0,.36.36,0,0,0-.13.11.49.49,0,0,0-.08.17.82.82,0,0,0,0,.21,1,1,0,0,0,0,.22.41.41,0,0,0,.07.16.29.29,0,0,0,.13.09.52.52,0,0,0,.19,0h0v.46H27.7a1.19,1.19,0,0,1-.41-.06A.67.67,0,0,1,27,4a.73.73,0,0,1-.15-.29,1.44,1.44,0,0,1,0-.39A1.26,1.26,0,0,1,26.88,3a.89.89,0,0,1,.53-.55,1.26,1.26,0,0,1,.44-.08Zm0,2.62v.5l-.28,0h-.2l-.18,0-.14,0-.08,0a.13.13,0,0,1,0-.07.56.56,0,0,1,0-.13c0-.05,0-.09,0-.12a.22.22,0,0,1,0-.07l0,0h0l.08,0,.13,0,.17,0,.21,0a.79.79,0,0,0,.27,0Zm0,2.53v.42a2.66,2.66,0,0,0-1.33.44L26.7,10A18.31,18.31,0,0,0,24,10.6v-.44a18.73,18.73,0,0,1,2.19-.49l-.15-1.48.14-.14a3,3,0,0,1,1.63-.57Zm0,5.47v.42a14.89,14.89,0,0,0-3.81.87V13.8A15.3,15.3,0,0,1,27.85,13Zm0,11.4V26l-1.14,1.2L24,24.05V20.36l3.81,4Zm0,2.93v4.45L24,36.17V31.28l3.81-4Zm0,14.58v.73a3.22,3.22,0,0,1-.4-4.76,5.84,5.84,0,0,0,.4,4Zm0,1.31A14.87,14.87,0,0,1,24,42.31v.45a15.3,15.3,0,0,0,3.81.84v-.42Zm0,5.47v.42a3,3,0,0,1-1.63-.57l-.14-.14.15-1.49A18.62,18.62,0,0,1,24,46.39V46a18.27,18.27,0,0,0,2.65.57l-.18,1.69a2.67,2.67,0,0,0,1.33.44Zm0,1.24v1H27.4l-.29,0-.22.06-.12.06,0,.05,0,.06a.56.56,0,0,0,0,.08s0,.06,0,.1,0,.1,0,.13a.26.26,0,0,0,0,.08l0,0h0l.1,0L27,51.5l.23-.06a1.12,1.12,0,0,1,.3,0,.85.85,0,0,1,.24,0l.09,0v.72h0a.61.61,0,0,1-.22.08,1.23,1.23,0,0,1-.3,0l-.38,0h-.06l0,0a.23.23,0,0,0,0,.08,1.27,1.27,0,0,0,0,.13c0,.06,0,.11,0,.14a.22.22,0,0,0,0,.08.08.08,0,0,0,0,0l.06,0,.38,0a1.34,1.34,0,0,1,.33.06.67.67,0,0,1,.22.12l0,0v.66l-.08.07a.6.6,0,0,1-.21.09.94.94,0,0,1-.27,0,1.18,1.18,0,0,1-.31-.06l-.22-.1-.15-.09-.09,0a.06.06,0,0,0-.06,0,.37.37,0,0,0,0,.15c0,.07,0,.12,0,.17a.9.9,0,0,0,0,.11.22.22,0,0,0,0,.07l0,.05.09.07.17.09.25.08.32,0a2.31,2.31,0,0,0,.54,0v.85A27.6,27.6,0,0,1,24,54.88V53.23l.14-.19,1.46-2.1a.39.39,0,0,0,.05-.1.07.07,0,0,0,0-.07.24.24,0,0,0-.1-.06l-.19-.05-.2,0h-.12l-.07,0,0,.05-.64,1-.21.33,0,.08V49.32a22.12,22.12,0,0,0,3.81.57ZM24,20V15.91l1.49,1.64a.8.8,0,0,1-.06,1.13L24,20ZM26.43,5.18a.73.73,0,0,1,0,.11.27.27,0,0,1,0,.07l0,0H24.63l0,0a.26.26,0,0,1,0-.07.72.72,0,0,1,0-.11.9.9,0,0,1,0-.11.25.25,0,0,1,0-.07l0,0h.6V3l-.49.27-.09,0H24.6a.12.12,0,0,1,0-.07,1.2,1.2,0,0,1,0-.14s0-.07,0-.09a.19.19,0,0,1,0-.06l0,0,0,0,.65-.42,0,0h.47l0,0a.07.07,0,0,1,0,0V4.94h.53l0,0a.25.25,0,0,1,0,.07A.83.83,0,0,1,26.43,5.18Zm-2.39,5v.44q-.87.26-1.71.6l-.69-1.55h0a3.19,3.19,0,0,0-1.66.41V9.6a3.16,3.16,0,0,1,1.77-.36L22,9.3l.61,1.36q.73-.28,1.49-.5Zm0,3.63v.45A14.94,14.94,0,0,0,20,16.53V16A15.36,15.36,0,0,1,24,13.8Zm0,2.11-.1-.11a.8.8,0,0,0-1.13-.06l-1.63,1.48c-.24-.27-.75-.22-1.2.08v6.23l.08,0a.76.76,0,0,0,.25-.15l1.76-1.6,2,2.29V20.36l-.2-.21L24,20V15.91Zm0,15.38v4.89l-2.21,2.58a1,1,0,0,1-.82.34,1.43,1.43,0,0,1-.93-.39l-.1-.09V35.54L24,31.28Zm0,11v.45A15.36,15.36,0,0,1,20,40.56V40A15,15,0,0,0,24,42.31ZM24,46v.44q-.75-.22-1.49-.5L22,47.26l-.19.05A3.16,3.16,0,0,1,20,47v-.46a3.19,3.19,0,0,0,1.66.41l.69-1.55q.83.34,1.71.6Zm0,3.36v2.74l-.15.25h0c0-.12,0-.25-.06-.37s0-.25-.07-.37l-.24-1.16a.52.52,0,0,0,0-.1.15.15,0,0,0-.06-.07l-.12-.05-.2-.05-.21,0a.2.2,0,0,0-.12,0,.09.09,0,0,0,0,.08.52.52,0,0,0,0,.15l.6,2.58-.13.14-.11.08-.1,0h-.11l-.13,0L22.7,53,22.64,53l0,0s-.06,0-.09,0a.75.75,0,0,0-.07.22c0,.06,0,.1,0,.14a.72.72,0,0,0,0,.1.22.22,0,0,0,0,.07l0,0,.06.06.1.06.13.06.14,0a1.29,1.29,0,0,0,.36,0,.76.76,0,0,0,.32-.09,1.25,1.25,0,0,0,.31-.25l.21-.25v1.65A27.38,27.38,0,0,1,20,53.78v-.94l.08,0,.17.08.17.06.11,0h.07a.08.08,0,0,0,0,0l0-.07a1,1,0,0,0,0-.16V52a2.84,2.84,0,0,0,0-.36,1.32,1.32,0,0,0-.05-.26.83.83,0,0,0-.1-.2,1.19,1.19,0,0,0-.15-.17h0l.2,0a.76.76,0,0,0,.2-.07,1.26,1.26,0,0,0,.21-.14l.23-.23.46-.5.09-.11,0-.08a.09.09,0,0,0,0-.05.1.1,0,0,0,0-.05l-.09-.06-.16-.07-.18-.06-.11,0-.07,0-.05,0-.49.57a2,2,0,0,1-.22.22.73.73,0,0,1-.2.12.47.47,0,0,1-.19,0v-1l.13-.33a.08.08,0,0,0,0-.05.12.12,0,0,0,0-.05L20,49V47.91A22,22,0,0,0,24,49.32ZM20,5.64V4.78a.75.75,0,0,1,.26.51A.38.38,0,0,1,20,5.64Zm0-.87v.87c-.16.07-.33.09-.31.16s.25.35.12.49c-.36.37-.79-.06-1.23-.07s-.85.51-.21.5c.42,0,.83,0,1.11.31.39.93-.67.68-1,1.06-.15.21.47.32.16.68A.68.68,0,0,1,18,9a13.05,13.05,0,0,0-1.75-.29c-.49,0-1.05-.18-1.49.23.35.5,1.05-.09,1.51.28.93.58-.37,1-.89,1.08.57.44,0,.85-.87.87A2.93,2.93,0,0,1,13.8,11a1.69,1.69,0,0,0-.33-.67l.1-.17.22,0c.81-.13,1.61.07,2.28-.47a15.07,15.07,0,0,1-2.41.25.62.62,0,0,0-.1-.43l.06-.11a8.7,8.7,0,0,1,.78-.79,5,5,0,0,1,3.35-1A1.56,1.56,0,0,0,19,7.39a6.32,6.32,0,0,1-2.13-.17c-.5,0-.84.37-1.29.41-.68.06,1.19-1,1.44-1.21a10,10,0,0,1,2.85-1.29c-.77-.28-3,1.13-3.7,1.54a5.64,5.64,0,0,1-.92.64c-.13-.08.14-1.16.19-1.32a3.45,3.45,0,0,0-.31.8,4.67,4.67,0,0,1-1.44,2.07A1.13,1.13,0,0,0,13,7.95c.21-.55.47-1.13.69-1.62a4.89,4.89,0,0,0-.76.91,3.5,3.5,0,0,0-.3.64,1,1,0,0,0-.32,0V7c.08.18,0,.45.27.09S13.41,5.37,14,5.84c.4.33.1.85,0,1.28-.08.26-.22.61.06.81a.73.73,0,0,0,.3-.45,2.94,2.94,0,0,1,.34-1.39c.22-.38,1-1.16,1.5-.75.08.19-.17.28-.16.45.34.32,1.13-1.29,1.79-.82.11.08,0,.27,0,.39.48-.12.76-1,1.4-.76.11.31.43-.1.64,0a1,1,0,0,1,.22.16ZM20,9.6a11.43,11.43,0,0,0-1.18.59c-.64.37-2.1,1.31-2.3,2.08l0,.19.88,1.21a19,19,0,0,0-2.69,2.69l-1.21-.88-.19,0a2.16,2.16,0,0,0-.93.67v.65a2.62,2.62,0,0,1,1-.92h0l1.38,1a18.53,18.53,0,0,1,3.19-3.19l-1-1.38A5,5,0,0,1,19,10.56a10.73,10.73,0,0,1,1-.5V9.6ZM20,16v.53A15,15,0,0,0,20,40v.53A15.38,15.38,0,0,1,20,16Zm0,1.31-.19.15c-.49.44-.65,1-.37,1.36l-1.77,1.6a.77.77,0,0,0-.18.23L16.1,23.36a.79.79,0,0,0,.12.9l.13.14a.79.79,0,0,0,.88.21L20,23.54V17.3Zm0,18.24-.79.83a1,1,0,0,0-.26.85,1.43,1.43,0,0,0,.49.89l.56.51V35.54Zm0,11a10.78,10.78,0,0,1-1-.5,5,5,0,0,1-2.1-1.82h0l1-1.38a18.54,18.54,0,0,1-3.19-3.19l-1.38,1a2.62,2.62,0,0,1-1-.92v.65a2.16,2.16,0,0,0,.93.67l.19,0,1.21-.88a18.93,18.93,0,0,0,2.69,2.69l-.88,1.21,0,.19c.19.77,1.65,1.71,2.3,2.08A11.49,11.49,0,0,0,20,47v-.46Zm0,1.41V49l-.16-.07-.16-.06-.11,0h-.07a.08.08,0,0,0,0,0L18.19,52a.07.07,0,0,0,0,.05l0,.06.1.06.16.07.17.06.11,0h.07l0,0L19.39,51l.15.06a.83.83,0,0,1,.2.11.47.47,0,0,1,.13.16.75.75,0,0,1,.06.23,1.78,1.78,0,0,1,0,.32l0,.84a.17.17,0,0,0,0,.07.15.15,0,0,0,0,.06l0,0v.94a27.52,27.52,0,0,1-7.66-4.21V48.24h2.85V44.88a22.13,22.13,0,0,0,4.82,3Zm0,1.59-.37.91.15.06a.65.65,0,0,0,.21.05h0v-1ZM12.32,13.21l.21,0a.7.7,0,0,0,.52-.47c.16-.45-.45-.33-.38-.59.14-.46,1.22-.59.54-1.33a1,1,0,0,0-.9,0v.77a2.2,2.2,0,0,0,.61-.29,1.24,1.24,0,0,1-.61.49v1.44Zm0-2.91c.37,0,.78.08,1-.32.08-.18-.18-.27-.27-.42s.51-.27.36-.69a.85.85,0,0,0-.68-.46c-.14,0-.26.16-.38.25v.49A1.29,1.29,0,0,1,13,8.87a7.26,7.26,0,0,0-.67.51Zm0-3.35v.95A1,1,0,0,0,12,8a1.91,1.91,0,0,0-.81.34,1.86,1.86,0,0,1,0-.75c.16-.4.5-.8.92-.78a.17.17,0,0,1,.15.12Zm0,1.71v.49a8.19,8.19,0,0,0-1.21,1.14V9.77c.33-.33.36-1.11,1-1.13a.14.14,0,0,0,.23,0Zm0,.71a10.84,10.84,0,0,0-1.21,1.24v1.2c.41-.09.82-.12,1.21-.24V10.8l-.25.1c-.59.23-.27-.44,0-.54l.22,0V9.38Zm0,2.4v1.44c-.4.06-.81.13-1.21.22V12.15a3.08,3.08,0,0,1,.68-.23,2.93,2.93,0,0,0,.53-.15Zm0,4.44v.65A10.13,10.13,0,0,0,11.53,18c-.16.27-.3.54-.42.79v-.91l.05-.09a10,10,0,0,1,1.16-1.62Zm0,23.48v.65a10,10,0,0,1-1.16-1.62l-.05-.09v-.91c.12.26.26.52.42.79a10.07,10.07,0,0,0,.79,1.18Zm0,8.54v1.33q-.62-.48-1.21-1v-.33Zm-1.21-2V43.6c.35-.06.44.14.42.72a6.59,6.59,0,0,0,.55,2.18c-.23.13-.44-.07-.63-.14a.86.86,0,0,0-.33-.12Zm0-10.58V35.2l.52-.23q-.29-.78-.52-1.57V31.52a18.27,18.27,0,0,0,1.06,3.68l-1.06.47Zm0-10.62V23.16q.22-.8.52-1.57l-.52-.23v-.46l1.06.47A18.29,18.29,0,0,0,11.11,25Zm0-10.14V14C11.64,14.2,11.45,14.58,11.11,14.9Zm0-5.13v.53c-.47.52-.89,1-1.09,1.31a5.77,5.77,0,0,1-.65.92c-.15,0-.25-1.14-.26-1.31a3.47,3.47,0,0,0,0,.86,3.49,3.49,0,0,1-.19,1.36V10.59a.6.6,0,0,1,.64-.22c.14.15-.06.32,0,.48.43.19.63-1.61,1.4-1.4.13,0,.12.24.09.38l.08-.07Zm0,.85-.37.46c-.16.29-1.57,1.93-1,1.64.41-.19.62-.65,1.08-.84l.25-.06v-1.2Zm0,1.53A5.93,5.93,0,0,0,9,14l-.08.15v1.26a9.74,9.74,0,0,0,2-1c-.45.75-1.27.83-2,1.24l0,0v.47a1.6,1.6,0,0,1,.32.34,3,3,0,0,0,.77-.11c.83-.33,1.21-.91.53-1.12a2.48,2.48,0,0,0,.6-.42V14L11,14c-.55-.19-1,.61-1.51.26.27-.54.85-.6,1.32-.74l.32-.08V12.15Zm0,5.78v.91a3.52,3.52,0,0,0-.49,1.83l.49.22v.46L10.27,21l-.05-.19c-.21-.73.51-2.17.9-2.86Zm0,5.23V25q-.06.34-.11.69l-1.69-.18h0a2.5,2.5,0,0,0-.42,1.23V25.4A1,1,0,0,1,9,25.25l.14-.14,1.48.16a18.8,18.8,0,0,1,.46-2.11Zm0,8.36V33.4a18.79,18.79,0,0,1-.46-2.11l-1.48.15L9,31.31a1,1,0,0,1-.13-.16V29.77A2.5,2.5,0,0,0,9.32,31L11,30.83q0,.34.11.68Zm0,3.69v.46l-.49.22h0a3.51,3.51,0,0,0,.49,1.83v.91c-.39-.69-1.1-2.13-.9-2.86l.05-.19.84-.38Zm0,8.4v2.65c-.59-.11-1.53,0-1.59-.61,0-.18.19-.15.27-.29-.07-.16-.48-.08-.9,0V42a.87.87,0,0,0,.16.22c.41-.34-.11-.93.18-1.35.46-.85.9.28.95.73.35-.53.72-.06.77.72,0,.42-.29.87-.06,1.34l.22-.06Zm0,4.64v.33l-.37-.33ZM8.9,39.94v-1a.55.55,0,0,1,.09.39c0,.2-.06.4-.09.6Zm0-21.13v-.62a.25.25,0,0,1,.1.26.82.82,0,0,1-.1.36Zm0-1.61v-.36A.38.38,0,0,1,8.9,17.2Zm0-6.6v2.84a8.31,8.31,0,0,1-.42,1,1.14,1.14,0,0,0-1-.5c0-.59.06-1.23.11-1.78a5,5,0,0,0-.41,1.12,3.55,3.55,0,0,0-.07.75,1,1,0,0,0-.34.25v-1l0-.08c.1-.41.22-1.86.91-1.62.48.17.38.77.39,1.21,0,.27,0,.65.32.74A.74.74,0,0,0,8.52,13a3,3,0,0,1-.14-1.43,2.34,2.34,0,0,1,.52-1Zm0,3.6c-.1.2-.2.41-.29.62a1.11,1.11,0,0,1,0,.42.65.65,0,0,1,.2.28l.11-.06V14.19Zm0,1.54v.47l-.14-.11a1.76,1.76,0,0,0,.06-.32l.08,0Zm0,1.11a.78.78,0,0,0-.31-.27c-.43-.1-.73.18-1.06.45-.5.4-.39-.34-.13-.53s1-.19,1-.71c0-.2-.25-.2-.38-.32s.4-.42.14-.77a.84.84,0,0,0-.78-.23c-.23,0-.24.57-.51.39l-.13.07v1.19c.34-.64.71-1.2,1.05-1.31a8.87,8.87,0,0,0-1.05,1.76v1.71a5.71,5.71,0,0,0,1.71-1.15,1.61,1.61,0,0,1-.89,1,3.32,3.32,0,0,0-.82.67v1.39l.35-.22a13.28,13.28,0,0,1,1.55-.86.6.6,0,0,0,.25-.24v-.62c-.15-.09-.43,0-.43-.18s.31-.54.43-.81v-.36Zm0,8.57v1.38a10.63,10.63,0,0,0,0,3v1.38a6.45,6.45,0,0,1-.53-2.87A6.44,6.44,0,0,1,8.9,25.4Zm0,13.54v1a9.08,9.08,0,0,0-.09,1A2.18,2.18,0,0,0,8.9,42v3.35a2.19,2.19,0,0,1-.87.07.93.93,0,0,1-.7-.78c0-.26.59-.12.16-.38-.15-.09-.48-.24-.75-.43v-.94a2.26,2.26,0,0,1,.76.16c.23.06.52.17.69-.09a.6.6,0,0,0-.39-.24,2.63,2.63,0,0,1-1.06-.17v-3.2c.13.13.28.15.27-.18s-.06-.73.22-1c.78-.39.6.56.94.79.18.13.25-.43.57-.18a.69.69,0,0,1,.15.16ZM6.75,37.53l.15,0c-.06-.92.39-1.69.25-2.63.38.79,0,1.55,0,2.39a3.52,3.52,0,0,0,0,.43l.11.12a1.74,1.74,0,0,1,.65-.15,7.72,7.72,0,0,0,.4-.93c.16-.89-.12-1.53-.65-1,.07-.52-.11-1.92-.85-1.11l0,0v2.86Zm0-4.25v-1.2l.07.07a.72.72,0,0,1,.12.7l-.18.43Zm0-3.52V28.69c.27.09.26.55,0,1.08Zm0-4.08V25a.4.4,0,0,1,.06.12.76.76,0,0,1-.06.61Zm0-2.5V21.88a2.11,2.11,0,0,0,.74-1.09,3.22,3.22,0,0,1-.74.8v-.87a1,1,0,0,1,.67-.41c1.08-.12.32,1.06-.06,1.41.71,0,.52.66-.17,1.23A1.65,1.65,0,0,1,6.75,23.18Zm0-9.89v1l0,0A1.71,1.71,0,0,0,6,15a2.07,2.07,0,0,1-.28-.79,1.11,1.11,0,0,1,.61-1.06c.27-.09.32.55.44.13Zm0,1.63c-.45.3-.24,1-.52,1.41,0-.14-.06-.34-.2-.33-.8,0-.46,1.81-.92,1.77-.11-.13,0-.36-.14-.46a.47.47,0,0,0-.3.09V20l.11.17a.75.75,0,0,1,0,.54l-.15,0v.67a1,1,0,0,1,.46.29A4.81,4.81,0,0,0,5,19.07a3.44,3.44,0,0,1-.23-.83c.06.16.48,1.18.64,1.17a5.89,5.89,0,0,0,.35-1.08,21.41,21.41,0,0,1,1-2.22V14.92Zm0,1.64v1.71l-.08.05c-.38.33-.44.82-.78,1.14-.5.47.36-1.53.42-1.86s.27-.7.43-1Zm0,2.19v1.39a1.33,1.33,0,0,0-.69.89c.3.09.49-.11.69-.32v.87a6.91,6.91,0,0,0-1,.91.59.59,0,0,0-.34-.28v-.07A9.43,9.43,0,0,1,5.51,21a6.46,6.46,0,0,1,1.23-2.22Zm0,3.13a10,10,0,0,0-.78.71l-.16.19c0,.06,0,.12,0,.19a1.59,1.59,0,0,1,.67.32l.25-.1V21.88Zm0,3.08v.73l-.07.09a13.6,13.6,0,0,0-1.16,1.37c-.29.41-.71.82-.59,1.42.6,0,.48-1,1-1.17,1-.5.67.87.43,1.34a.54.54,0,0,1,.36,0v1.08l-.09.18a4.14,4.14,0,0,1-.6.64,1.44,1.44,0,0,0-.81-.1h0a3.52,3.52,0,0,1,.14-.43c.31-.78.91-1.36.81-2.24-.19.93-.86,1.5-1.11,2.38a.57.57,0,0,0-.38-.24l0-.12V26.57a3.68,3.68,0,0,1,.67-1.31A1.65,1.65,0,0,0,5.84,24a5.52,5.52,0,0,1-1.18,1.66V24.46c.06,0,.16,0,.27-.19.22-.37.41-.74.84-.81,1,.15.21.94.38,1.39.08.22.42-.14.59.1Zm0,7.13v1.2a11.39,11.39,0,0,0-.45,1.26c-.14.48-.39,1-.08,1.54.53-.24.16-1,.54-1.42v2.86a.6.6,0,0,0-.25,0,10.59,10.59,0,0,1-.73-1.14,5.36,5.36,0,0,1-.27-3.57,1.67,1.67,0,0,0,.07-1.32A6.76,6.76,0,0,1,5,33.62c-.08.5.18.92.13,1.38s-.23,0-.43-.55V32.31a.39.39,0,0,0,.12-.26c.08-.43.14-.84.52-1.05,1-.2.51.81.82,1.17.16.18.36-.31.62-.09Zm0,7.26A.57.57,0,0,1,6.58,39c0-.39.35-.79,0-1.09-.13-.12-.26.08-.41.13s-.09-.5-.46-.48a.76.76,0,0,0-.55.46c-.09.19.28.45,0,.57-.15.57.58.78.69,1.2-.1-.06-.27-.12-.33,0-.38.6,1,1.22.76,1.54-.15,0-.23-.2-.39-.12-.33.44.36,1.11.69,1.29l.14.07v-3.2Zm0,3.53v.94c-.3-.21-.52-.47-.32-.75a.45.45,0,0,1,.32-.19ZM4.66,39.5v-.82a2.16,2.16,0,0,0,.09.84Zm0-1.43V38h0l0,.07Zm0-.54.2.14a1.07,1.07,0,0,1,1.08-.42,6,6,0,0,0-1.28-1.66v.67h0a.72.72,0,0,1,.37.39.38.38,0,0,1-.39.09v.78Zm0-2.25.05,0-.05-.17v.19Zm0-4.17a.54.54,0,0,0,0-.59h0v.6Zm0-7.34c.26-.34.79-.5.67-1,0-.2-.3-.1-.47-.16s.23-.54-.13-.77l-.07,0Zm0-6.38V20a2.63,2.63,0,0,1-.45-1.14,1.86,1.86,0,0,1,.45-1.44Zm0,3.28c-.23-.08-.31-.37-.38-.59-.15-.42-.23-1-.74-1-.73,0-.41,1.4-.38,1.83,0,.59-.21-.08-.45.1a1.12,1.12,0,0,0-.27,1.2,1.8,1.8,0,0,0,.44.6A2.06,2.06,0,0,1,3.3,22a1,1,0,0,1,.39-.52,3.49,3.49,0,0,1-.14-.69,5,5,0,0,1,.06-1.19c.12.53.26,1.16.42,1.73a1.16,1.16,0,0,1,.64,0v-.67Zm0,1.15v1.95l0,0c-.12.18-.09.56,0,.64v1.23l-.08.11c-.25.45-.13.93-.34,1.34-.31.63-.19-1.56-.24-1.89a10.65,10.65,0,0,1,.43-3.16c-.64.52-.66,3.25-.67,4a5.91,5.91,0,0,1,0,1.14c-.14.07-.89-.73-1-.86a3.38,3.38,0,0,0,.5.69,5,5,0,0,1,1,2.49,1,1,0,0,0-1.19-.06c-.33-.46-.67-1-.95-1.41a5,5,0,0,0,.35,1.14,3.39,3.39,0,0,0,.31.51,1.07,1.07,0,0,0-.27.72,2.3,2.3,0,0,0-.15.78,1.33,1.33,0,0,1-.45-.32,1.13,1.13,0,0,1-.16-1.21c.17-.25.63.28.39-.25s-1-1.6-.27-1.85c.48-.17.76.36,1,.7s.39.51.7.37a.74.74,0,0,0-.22-.5,2.85,2.85,0,0,1-1-1c-.2-.4-.42-1.5.17-1.7.2,0,.15.29.29.38.45-.13-.48-1.67.26-2,.12-.05.24.11.3.24.15-.48-.4-1.17.11-1.61.32.07.14-.43.34-.55a.89.89,0,0,1,.74-.11Zm0,4.74a7,7,0,0,0-.25,2.14,9.16,9.16,0,0,0,.25,1.12V26.57Zm0,3.94c-.11-.14-.31,0-.48,0s0-.59-.38-.68a.84.84,0,0,0-.74.35c-.15.18.18.59-.14.64-.33.6.42,1.05.44,1.56-.1-.1-.26-.22-.36-.12-.58.56.8,1.69.42,2-.16,0-.21-.3-.4-.26-.48.4.09,1.35.41,1.66a2.75,2.75,0,0,0,1.24.62v-.67a3,3,0,0,0-.47-.31,3.3,3.3,0,0,1-.7-.47,4.64,4.64,0,0,0,1.17.48v-.19a5.72,5.72,0,0,0-.37-.88c-.25-.74-1.14-3.31-.71-4a10.64,10.64,0,0,0,.65,3.12c.07.14.25.69.43,1.15V32.31c-.16.1-.37-.33-.31-.58a2.92,2.92,0,0,1,.31-.62v-.6Zm0,6.24v.78c-.42-.29-.84-.61-1.21-.89a4.91,4.91,0,0,0,.71.95,3.35,3.35,0,0,0,.5.4v.08a1.08,1.08,0,0,0,0,.59v.84a1.18,1.18,0,0,1-.47-.14,1.11,1.11,0,0,1-.56-1.09c.07-.29.68,0,.28-.38s-1.43-1.17-.87-1.64c.39-.33.83.07,1.21.3A1.85,1.85,0,0,0,4.66,36.75Z"/></svg>