<svg xmlns="http://www.w3.org/2000/svg" viewBox="0 0 55.24 50.8"><defs><style>.cls-1{fill:#fefefe;fill-rule:evenodd;}</style></defs><title>Ресурс 11</title><g id="Слой_2" data-name="Слой 2"><g id="_1" data-name="1"><path class="cls-1" d="M52.21,34.93v-.84a1.08,1.08,0,0,0,0-.59v-.08a3.31,3.31,0,0,0,.5-.4,4.9,4.9,0,0,0,.71-.95c-.37.28-.79.6-1.21.89v-.78a1.86,1.86,0,0,0,.4-.2c.38-.22.82-.63,1.21-.3.57.48-.58,1.34-.87,1.64s.21.08.28.38a1.11,1.11,0,0,1-.56,1.09,1.18,1.18,0,0,1-.47.14Z"/><path class="cls-1" d="M52.21,31.69a2.75,2.75,0,0,0,1.24-.62c.32-.3.89-1.26.41-1.66-.19,0-.23.23-.4.26-.38-.27,1-1.4.42-2-.1-.1-.26,0-.36.12,0-.5.76-1,.44-1.56-.32,0,0-.45-.14-.64a.84.84,0,0,0-.74-.35c-.42.09-.24.68-.38.68s-.37-.17-.48,0v.6a2.94,2.94,0,0,1,.31.63c.06.25-.16.68-.31.58v2.14c.18-.46.36-1,.43-1.15a10.63,10.63,0,0,0,.65-3.12c.43.72-.46,3.28-.71,4a5.69,5.69,0,0,0-.37.88v.19a4.63,4.63,0,0,0,1.17-.48,3.29,3.29,0,0,1-.7.47,3,3,0,0,0-.47.31v.68Z"/><path class="cls-1" d="M52.21,25.26V22a7,7,0,0,1,.26,2.14,9.14,9.14,0,0,1-.26,1.12Z"/><path class="cls-1" d="M52.21,21.12V19.89c.12-.08.15-.46,0-.64l0,0V17.26a.89.89,0,0,1,.74.11c.2.12,0,.62.34.55.51.45,0,1.14.11,1.61.06-.13.18-.3.3-.24.74.32-.19,1.86.26,2,.15-.08.09-.35.29-.38.59.2.36,1.31.17,1.7a2.85,2.85,0,0,1-1,1,.74.74,0,0,0-.22.5c.32.14.53-.17.7-.37s.56-.88,1-.7c.69.25-.1,1.46-.27,1.85s.23,0,.39.25a1.13,1.13,0,0,1-.16,1.21,1.33,1.33,0,0,1-.45.32,2.29,2.29,0,0,0-.16-.78,1.07,1.07,0,0,0-.27-.72,3.42,3.42,0,0,0,.31-.51,5,5,0,0,0,.35-1.14c-.28.44-.62.95-.95,1.41a1,1,0,0,0-1.19.06,5,5,0,0,1,1-2.49,3.37,3.37,0,0,0,.5-.69c-.11.13-.86.93-1,.86a6,6,0,0,1,0-1.14c0-.79,0-3.51-.67-4a10.65,10.65,0,0,1,.43,3.16c-.05.33.07,2.52-.24,1.89-.2-.41-.09-.9-.34-1.34l-.08-.11Z"/><path class="cls-1" d="M52.21,16.78a1.16,1.16,0,0,1,.64,0c.16-.57.3-1.19.42-1.73a5,5,0,0,1,.06,1.19,3.48,3.48,0,0,1-.14.69,1,1,0,0,1,.39.52,2.07,2.07,0,0,1,.42.75,1.81,1.81,0,0,0,.44-.6,1.13,1.13,0,0,0-.27-1.2c-.24-.17-.49.49-.45-.1,0-.42.35-1.84-.38-1.83-.51,0-.59.61-.73,1-.08.22-.16.51-.38.59v.67Z"/><path class="cls-1" d="M52.21,15.41V12.82a1.86,1.86,0,0,1,.45,1.44A2.63,2.63,0,0,1,52.21,15.41Z"/><path class="cls-1" d="M52.21,12.82v2.58l-.11.17a.74.74,0,0,0,0,.54l.15,0v.67a1,1,0,0,0-.46.29,4.81,4.81,0,0,1,.09-2.56,3.45,3.45,0,0,0,.23-.83c-.06.16-.48,1.18-.64,1.17a5.9,5.9,0,0,1-.35-1.08,21.47,21.47,0,0,0-1-2.22V10.35c.45.3.24,1,.52,1.41,0-.14.06-.34.2-.33.8,0,.46,1.81.92,1.77.11-.13,0-.36.14-.46a.47.47,0,0,1,.29.09Z"/><path class="cls-1" d="M52.21,17.26V19.2c-.26-.34-.79-.5-.67-1,0-.2.3-.1.47-.16s-.23-.54.13-.77l.07,0Z"/><path class="cls-1" d="M52.21,19.89c-.06,0-.16,0-.27-.19-.22-.37-.41-.74-.84-.81-1,.15-.21.94-.38,1.39-.08.22-.42-.14-.59.1v.73l.06.09a13.55,13.55,0,0,1,1.16,1.37c.29.41.71.82.59,1.42-.6,0-.48-1-1-1.17-1-.5-.67.87-.43,1.34a.54.54,0,0,0-.36,0V25.2l.09.18a4.12,4.12,0,0,0,.6.64,1.44,1.44,0,0,1,.81-.1h0a3.5,3.5,0,0,0-.14-.43c-.31-.78-.91-1.36-.81-2.24.19.93.86,1.5,1.11,2.38a.57.57,0,0,1,.38-.24l0-.12V22a3.67,3.67,0,0,0-.67-1.31,1.65,1.65,0,0,1-.5-1.22,5.52,5.52,0,0,0,1.18,1.66V19.89Z"/><path class="cls-1" d="M52.21,25.94v.6a.54.54,0,0,1,0-.59Z"/><path class="cls-1" d="M52.21,27.74a.39.39,0,0,1-.12-.26c-.08-.43-.14-.84-.52-1.05-1-.2-.51.81-.82,1.17-.16.18-.36-.31-.62-.09v1.2A11.35,11.35,0,0,1,50.58,30c.14.48.39,1,.08,1.54-.53-.24-.16-1-.54-1.42V33a.6.6,0,0,1,.25,0,10.6,10.6,0,0,0,.73-1.14,5.36,5.36,0,0,0,.27-3.57,1.66,1.66,0,0,1-.07-1.32,6.76,6.76,0,0,0,.6,2.11c.08.5-.18.92-.13,1.38s.23,0,.43-.55V27.74Z"/><path class="cls-1" d="M52.21,30.52v.19l-.05,0,.05-.17Z"/><path class="cls-1" d="M52.21,31v.68h0a.72.72,0,0,0-.37.39.38.38,0,0,0,.39.09V33l-.2.14a1.07,1.07,0,0,0-1.08-.42A6,6,0,0,1,52.21,31Z"/><polygon class="cls-1" points="52.21 33.41 52.21 33.5 52.19 33.43 52.21 33.41 52.21 33.41"/><path class="cls-1" d="M52.21,34.09v.84h-.09a2.16,2.16,0,0,0,.09-.84v0Z"/><path class="cls-1" d="M50.13,39.25v-.94a.45.45,0,0,1,.32.19c.2.28,0,.54-.32.75Z"/><path class="cls-1" d="M50.13,38v-3.2a.57.57,0,0,0,.17-.35c0-.39-.35-.79,0-1.09.13-.12.26.08.41.13s.09-.5.46-.48a.76.76,0,0,1,.55.46c.09.19-.28.45,0,.57.15.57-.58.78-.69,1.2.1-.06.27-.12.33,0,.38.6-1,1.22-.76,1.54.15,0,.23-.2.39-.12.33.44-.36,1.11-.69,1.29l-.14.07Z"/><path class="cls-1" d="M50.13,18.61V17.31a10,10,0,0,1,.78.71l.16.19c0,.06,0,.12,0,.19a1.59,1.59,0,0,0-.67.32l-.25-.1Z"/><path class="cls-1" d="M50.13,17a6.91,6.91,0,0,1,1,.91.59.59,0,0,1,.34-.28v-.07a9.37,9.37,0,0,0-.15-1.17,6.45,6.45,0,0,0-1.23-2.22v1.39a1.33,1.33,0,0,1,.69.89c-.3.09-.49-.11-.69-.32V17Z"/><path class="cls-1" d="M50.13,13.7l.08.05c.38.33.44.82.78,1.14.5.47-.36-1.53-.42-1.86s-.27-.7-.43-1V13.7Z"/><path class="cls-1" d="M50.13,9.7l0,0a1.71,1.71,0,0,1,.74.7,2.09,2.09,0,0,0,.28-.79,1.11,1.11,0,0,0-.61-1.06c-.27-.09-.32.55-.44.13Z"/><path class="cls-1" d="M50.13,8.72v1a1,1,0,0,0-.34-.25,3.51,3.51,0,0,0-.07-.75,5,5,0,0,0-.41-1.12c0,.55.09,1.19.11,1.78a1.14,1.14,0,0,0-1,.5,8.28,8.28,0,0,1-.42-1V6a2.34,2.34,0,0,1,.52,1,3,3,0,0,1-.14,1.43.74.74,0,0,0,.13.53c.33-.09.31-.47.32-.74,0-.45-.09-1,.39-1.21.69-.24.81,1.21.91,1.62l0,.08Z"/><path class="cls-1" d="M50.13,10.35,50,10.29c-.27.18-.28-.35-.51-.39a.84.84,0,0,0-.78.23c-.26.35.24.68.14.77s-.41.12-.38.32c.06.52.66.44,1,.71s.37.93-.13.53c-.33-.27-.64-.55-1.06-.45a.78.78,0,0,0-.31.27v.36c.12.27.43.53.43.81s-.27.09-.43.18v.62a.6.6,0,0,0,.25.24,13.27,13.27,0,0,1,1.55.86l.35.22V14.18a3.31,3.31,0,0,0-.82-.67,1.61,1.61,0,0,1-.89-1,5.71,5.71,0,0,0,1.71,1.15V12a8.85,8.85,0,0,0-1.05-1.76c.34.11.72.67,1.05,1.31V10.35Z"/><path class="cls-1" d="M50.13,16.15V17a3.22,3.22,0,0,1-.74-.8,2.11,2.11,0,0,0,.74,1.09v1.31a1.66,1.66,0,0,1-.44-.24c-.69-.57-.88-1.24-.17-1.23-.38-.35-1.14-1.53-.06-1.41a1,1,0,0,1,.67.41Z"/><path class="cls-1" d="M50.13,20.38v.73a.76.76,0,0,1-.06-.61.41.41,0,0,1,.06-.12Z"/><path class="cls-1" d="M50.13,24.12V25.2c-.26-.53-.27-1,0-1.08Z"/><path class="cls-1" d="M50.13,27.52v1.2l-.18-.43a.72.72,0,0,1,.12-.7l.07-.07Z"/><path class="cls-1" d="M50.13,30.1V33L50,33c.06-.92-.39-1.69-.25-2.63-.38.79,0,1.55,0,2.39a3.46,3.46,0,0,1,0,.43l-.11.12a1.74,1.74,0,0,0-.65-.15,7.76,7.76,0,0,1-.4-.93c-.16-.89.12-1.53.65-1-.07-.52.11-1.92.85-1.11l0,0Z"/><path class="cls-1" d="M50.13,34.78c-.13.13-.28.15-.27-.18s.06-.73-.22-1c-.78-.39-.6.56-.94.79-.18.13-.25-.43-.57-.18a.69.69,0,0,0-.15.16v1a9.08,9.08,0,0,1,.09,1A2.17,2.17,0,0,1,48,37.42v3.35a2.19,2.19,0,0,0,.87.07.93.93,0,0,0,.7-.78c0-.26-.59-.12-.16-.38.15-.09.48-.24.75-.43v-.94a2.25,2.25,0,0,0-.76.16c-.23.06-.52.17-.69-.09a.6.6,0,0,1,.39-.24A2.63,2.63,0,0,0,50.13,38v-3.2Z"/><path class="cls-1" d="M48,11.63v-.47l.08,0a1.77,1.77,0,0,0,.06.32l-.14.11Z"/><path class="cls-1" d="M48,10.88l.11.06a.64.64,0,0,1,.2-.28,1.1,1.1,0,0,1,0-.42c-.09-.21-.18-.42-.28-.62Z"/><path class="cls-1" d="M48,6V8.87a3.48,3.48,0,0,1-.19-1.36,3.47,3.47,0,0,0,0-.86c0,.17-.11,1.28-.26,1.31A5.73,5.73,0,0,1,46.85,7c-.2-.26-.62-.78-1.09-1.31V5.2l.08.07c0-.14,0-.34.09-.38.77-.21,1,1.58,1.4,1.4.06-.16-.14-.33,0-.48A.6.6,0,0,1,48,6Z"/><path class="cls-1" d="M48,9.62l-.08-.15a5.94,5.94,0,0,0-2.13-1.89V8.87l.32.08c.47.14,1,.19,1.32.74-.5.34-1-.45-1.51-.26l-.13,0v.87a2.48,2.48,0,0,0,.6.42c-.68.21-.3.79.53,1.12a3,3,0,0,0,.77.11,1.59,1.59,0,0,1,.32-.34v-.47l0,0c-.72-.41-1.53-.49-2-1.24a9.74,9.74,0,0,0,2,1V9.62Z"/><path class="cls-1" d="M48,12.27v.36a.38.38,0,0,1,0-.36Z"/><path class="cls-1" d="M48,13.62v.62a.82.82,0,0,1-.11-.36.25.25,0,0,1,.11-.26Z"/><path class="cls-1" d="M48,34.38v1c0-.2-.06-.4-.09-.6a.55.55,0,0,1,.09-.39Z"/><path class="cls-1" d="M48,37.42v3.35c-.42-.08-.82-.15-.9,0,.08.15.26.11.27.29-.07.59-1,.5-1.59.61V39l.22.06c.22-.47-.09-.93-.06-1.34,0-.78.42-1.25.77-.72.05-.45.49-1.58.95-.73.3.42-.23,1,.18,1.35a.86.86,0,0,0,.16-.22Z"/><path class="cls-1" d="M45.76,44v-.33h.37l-.37.33Z"/><path class="cls-1" d="M45.76,7.24,46,7.3c.46.19.67.65,1.08.84.62.29-.79-1.35-1-1.64L45.76,6Z"/><path class="cls-1" d="M45.76,5.2v.53a8.19,8.19,0,0,0-1.21-1.14V4.1a.15.15,0,0,0,.23,0c.62,0,.65.8,1,1.13Z"/><path class="cls-1" d="M45.76,6a10.81,10.81,0,0,0-1.21-1.24v.93l.22,0c.31.1.63.77,0,.54l-.25-.1V7c.39.12.79.15,1.21.24V6Z"/><path class="cls-1" d="M45.76,7.58V8.87c-.4-.1-.81-.16-1.21-.22V7.21a2.93,2.93,0,0,0,.53.15,3.08,3.08,0,0,1,.68.23Z"/><path class="cls-1" d="M45.76,9.46v.87c-.33-.32-.53-.7,0-.87Z"/><path class="cls-1" d="M45.76,39v2.65a.85.85,0,0,0-.33.12c-.2.06-.4.27-.63.14a6.6,6.6,0,0,0,.55-2.18c0-.58.07-.78.42-.72Z"/><path class="cls-1" d="M45.76,43.67V44q-.59.52-1.21,1V43.67Z"/><path class="cls-1" d="M44.55,3.34v-1a.17.17,0,0,1,.15-.12c.43,0,.76.39.92.78a1.86,1.86,0,0,1,0,.75,1.91,1.91,0,0,0-.81-.34A1,1,0,0,0,44.55,3.34Z"/><path class="cls-1" d="M44.55,2.39v1a1,1,0,0,0-.32,0,3.47,3.47,0,0,0-.3-.64,4.87,4.87,0,0,0-.76-.91c.22.49.48,1.07.69,1.62a1.13,1.13,0,0,0-.71.91,4.67,4.67,0,0,1-1.44-2.07,3.43,3.43,0,0,0-.31-.8c.05.16.32,1.24.19,1.32l-.46-.28V.67a2,2,0,0,1,1.08.85,2.94,2.94,0,0,1,.34,1.39.73.73,0,0,0,.3.45c.28-.2.14-.55.06-.81-.13-.43-.43-1,0-1.28.57-.47,1.16.85,1.39,1.21s.19.09.27-.09Z"/><path class="cls-1" d="M44.55,4.1c-.12-.08-.23-.27-.38-.25a.85.85,0,0,0-.68.46c-.15.41.43.57.36.69s-.35.24-.27.42c.18.39.59.28,1,.32V4.81a7.25,7.25,0,0,0-.67-.51,1.29,1.29,0,0,1,.67.29V4.1Z"/><path class="cls-1" d="M44.55,6.23V7a2.2,2.2,0,0,1-.61-.29,1.24,1.24,0,0,0,.61.49V8.64l-.21,0a.7.7,0,0,1-.52-.47c-.17-.45.45-.33.38-.59C44.06,7.1,43,7,43.65,6.23a1,1,0,0,1,.9,0Z"/><path class="cls-1" d="M44.55,43.67V45a27.61,27.61,0,0,1-3.4,2.27V40.75l.56-.44v3.36Z"/><path class="cls-1" d="M41.14,5.71V5.32a7.54,7.54,0,0,0,1.93.26l.22,0,.1.17a1.69,1.69,0,0,0-.33.67,2.93,2.93,0,0,1-.75.16c-.89,0-1.44-.43-.87-.87l-.31-.05Z"/><path class="cls-1" d="M41.14,5.21c.7.15,1.37,0,2.06.15a.62.62,0,0,1,.1-.43l-.06-.11A8.67,8.67,0,0,0,42.47,4a7.24,7.24,0,0,0-1.33-.71v.81a1.17,1.17,0,0,1,.94.28c-.22.31-.58.19-.94.16v.64Z"/><path class="cls-1" d="M41.14,3l.13,0c.27,0,.14-.12-.13-.33Z"/><path class="cls-1" d="M41.14.67V2.46a5.12,5.12,0,0,1-.46-.36C40,1.69,37.75.28,37,.56a10,10,0,0,1,2.85,1.29c.15.13.9.57,1.31.88V3c-.39-.08-.71-.38-1.17-.39a6.32,6.32,0,0,1-2.13.17,1.56,1.56,0,0,0,1.28.2,3.88,3.88,0,0,1,2,.3v.81l-.55.05a13,13,0,0,0-1.75.29.68.68,0,0,1-.64-.26c-.3-.36.31-.47.16-.68-.28-.39-1.34-.13-1-1.06.28-.34.69-.31,1.11-.31.63,0,.11-.51-.21-.5s-.87.45-1.23.07c-.14-.14.08-.31.12-.49s-.57-.08-.57-.52A.87.87,0,0,1,37.11,0c.21-.11.53.3.64,0,.64-.21.92.64,1.4.76C39.07.67,39,.48,39.1.4c.66-.47,1.45,1.14,1.79.82,0-.17-.24-.27-.16-.45a.49.49,0,0,1,.42-.1Z"/><path class="cls-1" d="M41.14,4.56v.64l-.35-.1a1.62,1.62,0,0,0,.35.22v.39c-.58-.14-1.34-.54-.57-1a.74.74,0,0,1,.57-.12Z"/><path class="cls-1" d="M41.14,40.75v6.51a27.42,27.42,0,0,1-4.85,2.15V46.7l.69.59a1.28,1.28,0,0,1,0,.19.5.5,0,0,1,0,.13.25.25,0,0,1-.07.08l-.09.05-.13,0h-.25s0,0,0,.09a.75.75,0,0,0,.07.22l.06.13,0,.08,0,0,0,0h.2l.13,0,.14,0a1.28,1.28,0,0,0,.31-.18.76.76,0,0,0,.2-.26,1.25,1.25,0,0,0,.11-.39,3.76,3.76,0,0,0,0-.56l-.05-2.56a.4.4,0,0,0,0-.11.07.07,0,0,0-.05,0h-.11l-.19.07-.18.08-.1.06a.16.16,0,0,0,0,.06.19.19,0,0,0,0,.07L37,45.72c0,.14,0,.27,0,.39s0,.25,0,.38h0l-.27-.26L36.5,46l-.21-.19V43.6a22.13,22.13,0,0,0,4.85-2.85Z"/><path class="cls-1" d="M36.29,43.6v2.17l-.67-.6-.08-.06-.09,0-.12,0-.19.08-.19.09a.2.2,0,0,0-.09.08.09.09,0,0,0,0,.09.52.52,0,0,0,.1.11l1.32,1.14v2.71a27.39,27.39,0,0,1-3.53.91V47.63l.41,1.66a.07.07,0,0,0,0,0l.07,0h.11l.17,0,.17-.05.1,0a.12.12,0,0,0,0,0,.07.07,0,0,0,0-.05l-.69-2.78.86-.21,0,0a.12.12,0,0,0,0-.06.36.36,0,0,0,0-.09,1.09,1.09,0,0,0,0-.13,1.16,1.16,0,0,0,0-.13l0-.08,0,0h0l-1.14.28V44.76A22,22,0,0,0,36.29,43.6Z"/><path class="cls-1" d="M32.76,44.76v1.07l-1.29.32,0,0a.12.12,0,0,0,0,.06.38.38,0,0,0,0,.09,1.38,1.38,0,0,0,0,.14l0,.13,0,.08,0,0h0l.86-.22.28,1.12v2.69q-.82.15-1.65.26V45.09q.83-.13,1.65-.33Z"/><path class="cls-1" d="M31.11,45.09v5.49q-1.16.15-2.35.2V48.42l.12,1.43a.07.07,0,0,0,0,0l.06,0h.29l.17,0,.11,0,.06,0a.07.07,0,0,0,0-.05l-.25-2.85,1.17-.1,0,0a.12.12,0,0,0,0-.05.37.37,0,0,0,0-.09,1.08,1.08,0,0,0,0-.14.67.67,0,0,0,0-.23.09.09,0,0,0-.09-.06l-1.68.15h0V45.33a22.11,22.11,0,0,0,2.35-.24Z"/><path class="cls-1" d="M28.76,45.33v1.05a.2.2,0,0,0-.11.06.23.23,0,0,0,0,.18l.16,1.79v2.36l-1.09,0V45.36Z"/><path class="cls-1" d="M27.67,45.36V50.8h0q-.7,0-1.4,0v-.85h0a1.3,1.3,0,0,0,.46-.18.94.94,0,0,0,.31-.32,1.05,1.05,0,0,0,.14-.47.86.86,0,0,0,0-.31.84.84,0,0,0-.14-.27.82.82,0,0,0-.22-.2.86.86,0,0,0-.3-.11h0a.87.87,0,0,0,.27-.09.78.78,0,0,0,.37-.4,1.05,1.05,0,0,0,0-.69.71.71,0,0,0-.19-.29,1,1,0,0,0-.34-.2,1.68,1.68,0,0,0-.39-.09v-1q.69,0,1.4,0Z"/><path class="cls-1" d="M26.22,49.18l.06-.08a.45.45,0,0,0,.06-.2.55.55,0,0,0,0-.22.4.4,0,0,0-.1-.15v.66Z"/><path class="cls-1" d="M26.22,47.67a.43.43,0,0,0,.12-.13.47.47,0,0,0,.06-.21.5.5,0,0,0,0-.18A.34.34,0,0,0,26.3,47l-.07-.06v.72Z"/><path class="cls-1" d="M26.22,45.32v1h-.45l-.29,0-.22.06-.12.06,0,.05,0,.06a.56.56,0,0,0,0,.08s0,.06,0,.1,0,.1,0,.13A.26.26,0,0,0,25,47l0,0h0l.1,0,.17-.07.23-.06a1.12,1.12,0,0,1,.3,0,.85.85,0,0,1,.24,0l.09,0v.72h0a.61.61,0,0,1-.22.08,1.23,1.23,0,0,1-.3,0l-.38,0h-.06l0,0a.23.23,0,0,0,0,.08,1.27,1.27,0,0,0,0,.13c0,.06,0,.11,0,.14a.22.22,0,0,0,0,.08.08.08,0,0,0,0,0l.06,0,.38,0a1.34,1.34,0,0,1,.33.06.67.67,0,0,1,.22.12l0,0v.66l-.08.07a.6.6,0,0,1-.21.09.94.94,0,0,1-.27,0,1.18,1.18,0,0,1-.31-.06l-.22-.1L25,49.11l-.09,0a.06.06,0,0,0-.06,0,.37.37,0,0,0,0,.15c0,.07,0,.12,0,.17a.9.9,0,0,0,0,.11.22.22,0,0,0,0,.07l0,.05.09.07.17.09.25.08.32,0a2.31,2.31,0,0,0,.54,0v.85a27.6,27.6,0,0,1-3.81-.46V48.66l.14-.19L24,46.37a.39.39,0,0,0,.05-.1.07.07,0,0,0,0-.07.24.24,0,0,0-.1-.06l-.19-.05-.2,0h-.12l-.07,0,0,.05-.64,1-.21.33,0,.08V44.75a22.12,22.12,0,0,0,3.81.57Z"/><path class="cls-1" d="M22.42,44.75v2.74l-.15.25h0c0-.12,0-.25-.06-.37s0-.25-.07-.37l-.24-1.16a.52.52,0,0,0,0-.1.15.15,0,0,0-.06-.07l-.12-.05-.2-.05-.21,0a.2.2,0,0,0-.12,0,.09.09,0,0,0,0,.08.52.52,0,0,0,0,.15l.6,2.58-.13.14-.11.08-.1,0h-.11l-.13,0-.09-.06L21,48.42l0,0s-.06,0-.09,0a.75.75,0,0,0-.07.22c0,.06,0,.1,0,.14a.72.72,0,0,0,0,.1.22.22,0,0,0,0,.07l0,0,.06.06.1.06.13.06.14,0a1.29,1.29,0,0,0,.36,0,.76.76,0,0,0,.32-.09,1.25,1.25,0,0,0,.31-.25l.21-.25v1.65a27.38,27.38,0,0,1-4.06-1.11v-.94l.08,0,.17.08.17.06.11,0H19a.08.08,0,0,0,0,0l0-.07a1,1,0,0,0,0-.16V47.4A2.84,2.84,0,0,0,19,47a1.32,1.32,0,0,0-.05-.26.83.83,0,0,0-.1-.2,1.19,1.19,0,0,0-.15-.17h0l.2,0a.76.76,0,0,0,.2-.07,1.26,1.26,0,0,0,.21-.14l.23-.23.46-.5.09-.11,0-.08a.09.09,0,0,0,0-.05.1.1,0,0,0,0-.05L20,45.1,19.87,45,19.69,45l-.11,0-.07,0-.05,0-.49.57a2,2,0,0,1-.22.22.73.73,0,0,1-.2.12.47.47,0,0,1-.19,0v-1l.13-.33a.08.08,0,0,0,0-.05.12.12,0,0,0,0-.05l-.09-.06V43.34a22,22,0,0,0,4.06,1.41Z"/><path class="cls-1" d="M18.36,1.07V.21a.75.75,0,0,1,.26.51A.38.38,0,0,1,18.36,1.07Z"/><path class="cls-1" d="M18.36.21v.87c-.16.07-.33.09-.31.16s.25.35.12.49c-.36.37-.79-.06-1.23-.07s-.85.51-.21.5c.42,0,.83,0,1.11.31.39.93-.67.68-1,1.06-.15.21.47.32.16.68a.68.68,0,0,1-.64.26,13.05,13.05,0,0,0-1.75-.29c-.49,0-1.05-.18-1.49.23.35.5,1.05-.09,1.51.28.93.58-.37,1-.89,1.08.57.44,0,.85-.87.87a2.93,2.93,0,0,1-.75-.16,1.69,1.69,0,0,0-.33-.67l.1-.17.22,0c.81-.13,1.61.07,2.28-.47A15.07,15.07,0,0,1,12,5.35a.62.62,0,0,0-.1-.43L12,4.81A8.7,8.7,0,0,1,12.77,4a5,5,0,0,1,3.35-1,1.56,1.56,0,0,0,1.28-.2,6.32,6.32,0,0,1-2.13-.17c-.5,0-.84.37-1.29.41-.68.06,1.19-1,1.44-1.21A10,10,0,0,1,18.26.56c-.77-.28-3,1.13-3.7,1.54a5.64,5.64,0,0,1-.92.64c-.13-.08.14-1.16.19-1.32a3.45,3.45,0,0,0-.31.8,4.67,4.67,0,0,1-1.44,2.07,1.13,1.13,0,0,0-.71-.91c.21-.55.47-1.13.69-1.62a4.89,4.89,0,0,0-.76.91,3.5,3.5,0,0,0-.3.64,1,1,0,0,0-.32,0V2.39c.08.18,0,.45.27.09S11.78.8,12.35,1.27c.4.33.1.85,0,1.28-.08.26-.22.61.06.81a.73.73,0,0,0,.3-.45A2.94,2.94,0,0,1,13,1.52c.22-.38,1-1.16,1.5-.75.08.19-.17.28-.16.45.34.32,1.13-1.29,1.79-.82.11.08,0,.27,0,.39.48-.12.76-1,1.4-.76.11.31.43-.1.64,0a1,1,0,0,1,.22.16Z"/><path class="cls-1" d="M18.36,43.34v1.09l-.16-.07L18,44.3l-.11,0h-.07a.08.08,0,0,0,0,0l-1.26,3.11a.07.07,0,0,0,0,.05l0,.06.1.06.16.07.17.06.11,0h.07l0,0,.53-1.32.15.06a.83.83,0,0,1,.2.11.47.47,0,0,1,.13.16.75.75,0,0,1,.06.23,1.78,1.78,0,0,1,0,.32l0,.84a.17.17,0,0,0,0,.07.15.15,0,0,0,0,.06l0,0v.94A27.52,27.52,0,0,1,10.69,45V43.67h2.85V40.31a22.13,22.13,0,0,0,4.82,3Z"/><path class="cls-1" d="M18.36,44.92l-.37.91.15.06a.65.65,0,0,0,.21.05h0v-1Z"/><path class="cls-1" d="M10.69,8.64l.21,0a.7.7,0,0,0,.52-.47c.16-.45-.45-.33-.38-.59.14-.46,1.22-.59.54-1.33a1,1,0,0,0-.9,0V7a2.2,2.2,0,0,0,.61-.29,1.24,1.24,0,0,1-.61.49V8.64Z"/><path class="cls-1" d="M10.69,5.74c.37,0,.78.08,1-.32.08-.18-.18-.27-.27-.42s.51-.27.36-.69a.85.85,0,0,0-.68-.46c-.14,0-.26.16-.38.25v.49a1.29,1.29,0,0,1,.67-.29,7.26,7.26,0,0,0-.67.51Z"/><path class="cls-1" d="M10.69,2.39v.95a1,1,0,0,0-.28.13,1.91,1.91,0,0,0-.81.34,1.86,1.86,0,0,1,0-.75c.16-.4.5-.8.92-.78a.17.17,0,0,1,.15.12Z"/><path class="cls-1" d="M10.69,4.1v.49A8.19,8.19,0,0,0,9.49,5.73V5.2c.33-.33.36-1.11,1-1.13a.14.14,0,0,0,.23,0Z"/><path class="cls-1" d="M10.69,4.81A10.84,10.84,0,0,0,9.49,6v1.2c.41-.09.82-.12,1.21-.24V6.23l-.25.1c-.59.23-.27-.44,0-.54l.22,0V4.81Z"/><path class="cls-1" d="M10.69,7.21V8.64c-.4.06-.81.13-1.21.22V7.58a3.08,3.08,0,0,1,.68-.23,2.93,2.93,0,0,0,.53-.15Z"/><path class="cls-1" d="M10.69,43.67V45q-.62-.48-1.21-1v-.33Z"/><path class="cls-1" d="M9.49,41.68V39c.35-.06.44.14.42.72a6.59,6.59,0,0,0,.55,2.18c-.23.13-.44-.07-.63-.14a.86.86,0,0,0-.33-.12Z"/><path class="cls-1" d="M9.49,10.33V9.46C10,9.62,9.82,10,9.49,10.33Z"/><path class="cls-1" d="M9.49,5.2v.53C9,6.25,8.6,6.78,8.4,7A5.77,5.77,0,0,1,7.74,8c-.15,0-.25-1.14-.26-1.31a3.47,3.47,0,0,0,0,.86,3.49,3.49,0,0,1-.19,1.36V6a.6.6,0,0,1,.64-.22c.14.15-.06.32,0,.48.43.19.63-1.61,1.4-1.4.13,0,.12.24.09.38l.08-.07Z"/><path class="cls-1" d="M9.49,6l-.37.46c-.16.29-1.57,1.93-1,1.64.41-.19.62-.65,1.08-.84l.25-.06V6Z"/><path class="cls-1" d="M9.49,7.58A5.93,5.93,0,0,0,7.35,9.47l-.08.15v1.26a9.74,9.74,0,0,0,2-1c-.45.75-1.27.83-2,1.24l0,0v.47a1.6,1.6,0,0,1,.32.34,3,3,0,0,0,.77-.11c.83-.33,1.21-.91.53-1.12a2.48,2.48,0,0,0,.6-.42V9.46l-.13,0c-.55-.19-1,.61-1.51.26.27-.54.85-.6,1.32-.74l.32-.08V7.58Z"/><path class="cls-1" d="M9.49,39v2.65c-.59-.11-1.53,0-1.59-.61,0-.18.19-.15.27-.29-.07-.16-.48-.08-.9,0V37.42a.87.87,0,0,0,.16.22c.41-.34-.11-.93.18-1.35.46-.85.9.28.95.73.35-.53.72-.06.77.72,0,.42-.29.87-.06,1.34L9.49,39Z"/><path class="cls-1" d="M9.49,43.67V44l-.37-.33Z"/><path class="cls-1" d="M7.27,35.37v-1a.55.55,0,0,1,.09.39c0,.2-.06.4-.09.6Z"/><path class="cls-1" d="M7.27,14.24v-.62a.25.25,0,0,1,.1.26.82.82,0,0,1-.1.36Z"/><path class="cls-1" d="M7.27,12.63v-.36A.38.38,0,0,1,7.27,12.63Z"/><path class="cls-1" d="M7.27,6V8.86a8.31,8.31,0,0,1-.42,1,1.14,1.14,0,0,0-1-.5c0-.59.06-1.23.11-1.78A5,5,0,0,0,5.53,8.7a3.55,3.55,0,0,0-.07.75,1,1,0,0,0-.34.25v-1l0-.08c.1-.41.22-1.86.91-1.62.48.17.38.77.39,1.21,0,.27,0,.65.32.74a.74.74,0,0,0,.13-.53A3,3,0,0,1,6.75,7a2.34,2.34,0,0,1,.52-1Z"/><path class="cls-1" d="M7.27,9.62c-.1.2-.2.41-.29.62a1.11,1.11,0,0,1,0,.42.65.65,0,0,1,.2.28l.11-.06V9.62Z"/><path class="cls-1" d="M7.27,11.16v.47l-.14-.11a1.76,1.76,0,0,0,.06-.32l.08,0Z"/><path class="cls-1" d="M7.27,12.27A.78.78,0,0,0,7,12c-.43-.1-.73.18-1.06.45-.5.4-.39-.34-.13-.53s1-.19,1-.71c0-.2-.25-.2-.38-.32s.4-.42.14-.77a.84.84,0,0,0-.78-.23c-.23,0-.24.57-.51.39l-.13.07v1.19c.34-.64.71-1.2,1.05-1.31A8.87,8.87,0,0,0,5.12,12V13.7a5.71,5.71,0,0,0,1.71-1.15,1.61,1.61,0,0,1-.89,1,3.32,3.32,0,0,0-.82.67v1.39l.35-.22A13.28,13.28,0,0,1,7,14.48a.6.6,0,0,0,.25-.24v-.62c-.15-.09-.43,0-.43-.18s.31-.54.43-.81v-.36Z"/><path class="cls-1" d="M7.27,34.38v1a9.08,9.08,0,0,0-.09,1,2.18,2.18,0,0,0,.09,1.09v3.35a2.19,2.19,0,0,1-.87.07.93.93,0,0,1-.7-.78c0-.26.59-.12.16-.38-.15-.09-.48-.24-.75-.43v-.94a2.26,2.26,0,0,1,.76.16c.23.06.52.17.69-.09a.6.6,0,0,0-.39-.24A2.63,2.63,0,0,1,5.12,38v-3.2c.13.13.28.15.27-.18s-.06-.73.22-1c.78-.39.6.56.94.79.18.13.25-.43.57-.18a.69.69,0,0,1,.15.16Z"/><path class="cls-1" d="M5.12,33l.15,0c-.06-.92.39-1.69.25-2.63.38.79,0,1.55,0,2.39a3.52,3.52,0,0,0,0,.43l.11.12a1.74,1.74,0,0,1,.65-.15,7.72,7.72,0,0,0,.4-.93c.16-.89-.12-1.53-.65-1,.07-.52-.11-1.92-.85-1.11l0,0V33Z"/><path class="cls-1" d="M5.12,28.71v-1.2l.07.07a.72.72,0,0,1,.12.7l-.18.43Z"/><path class="cls-1" d="M5.12,25.2V24.12c.27.09.26.55,0,1.08Z"/><path class="cls-1" d="M5.12,21.12v-.73a.4.4,0,0,1,.06.12.76.76,0,0,1-.06.61Z"/><path class="cls-1" d="M5.12,18.61V17.31a2.11,2.11,0,0,0,.74-1.09,3.22,3.22,0,0,1-.74.8v-.87a1,1,0,0,1,.67-.41c1.08-.12.32,1.06-.06,1.41.71,0,.52.66-.17,1.23A1.65,1.65,0,0,1,5.12,18.61Z"/><path class="cls-1" d="M5.12,8.72v1l0,0a1.71,1.71,0,0,0-.74.7,2.07,2.07,0,0,1-.28-.79A1.11,1.11,0,0,1,4.68,8.6c.27-.09.32.55.44.13Z"/><path class="cls-1" d="M5.12,10.35c-.45.3-.24,1-.52,1.41,0-.14-.06-.34-.2-.33-.8,0-.46,1.81-.92,1.77-.11-.13,0-.36-.14-.46a.47.47,0,0,0-.3.09v2.58l.11.17a.75.75,0,0,1,0,.54L3,16.1v.67a1,1,0,0,1,.46.29,4.81,4.81,0,0,0-.09-2.56,3.44,3.44,0,0,1-.23-.83c.06.16.48,1.18.64,1.17a5.89,5.89,0,0,0,.35-1.08,21.41,21.41,0,0,1,1-2.22V10.35Z"/><path class="cls-1" d="M5.12,12V13.7L5,13.75c-.38.33-.44.82-.78,1.14-.5.47.36-1.53.42-1.86s.27-.7.43-1Z"/><path class="cls-1" d="M5.12,14.18v1.39a1.33,1.33,0,0,0-.69.89c.3.09.49-.11.69-.32V17a6.91,6.91,0,0,0-1,.91.59.59,0,0,0-.34-.28v-.07a9.43,9.43,0,0,1,.15-1.17,6.46,6.46,0,0,1,1.23-2.22Z"/><path class="cls-1" d="M5.12,17.31a10,10,0,0,0-.78.71l-.16.19c0,.06,0,.12,0,.19a1.59,1.59,0,0,1,.67.32l.25-.1V17.31Z"/><path class="cls-1" d="M5.12,20.38v.73l-.07.09a13.6,13.6,0,0,0-1.16,1.37c-.29.41-.71.82-.59,1.42.6,0,.48-1,1-1.17,1-.5.67.87.43,1.34a.54.54,0,0,1,.36,0V25.2L5,25.38a4.14,4.14,0,0,1-.6.64,1.44,1.44,0,0,0-.81-.1h0a3.52,3.52,0,0,1,.14-.43c.31-.78.91-1.36.81-2.24-.19.93-.86,1.5-1.11,2.38a.57.57,0,0,0-.38-.24l0-.12V22a3.68,3.68,0,0,1,.67-1.31,1.65,1.65,0,0,0,.5-1.22A5.52,5.52,0,0,1,3,21.12V19.89c.06,0,.16,0,.27-.19.22-.37.41-.74.84-.81,1,.15.21.94.38,1.39.08.22.42-.14.59.1Z"/><path class="cls-1" d="M5.12,27.52v1.2A11.39,11.39,0,0,0,4.67,30c-.14.48-.39,1-.08,1.54.53-.24.16-1,.54-1.42V33a.6.6,0,0,0-.25,0,10.59,10.59,0,0,1-.73-1.14,5.36,5.36,0,0,1-.27-3.57,1.67,1.67,0,0,0,.07-1.32,6.76,6.76,0,0,1-.6,2.11c-.08.5.18.92.13,1.38s-.23,0-.43-.55V27.74a.39.39,0,0,0,.12-.26c.08-.43.14-.84.52-1.05,1-.2.51.81.82,1.17.16.18.36-.31.62-.09Z"/><path class="cls-1" d="M5.12,34.78A.57.57,0,0,1,5,34.43c0-.39.35-.79,0-1.09-.13-.12-.26.08-.41.13S4.47,33,4.1,33a.76.76,0,0,0-.55.46c-.09.19.28.45,0,.57-.15.57.58.78.69,1.2-.1-.06-.27-.12-.33,0-.38.6,1,1.22.76,1.54-.15,0-.23-.2-.39-.12-.33.44.36,1.11.69,1.29l.14.07v-3.2Z"/><path class="cls-1" d="M5.12,38.31v.94c-.3-.21-.52-.47-.32-.75a.45.45,0,0,1,.32-.19Z"/><path class="cls-1" d="M3,34.93v-.82a2.16,2.16,0,0,0,.09.84Z"/><polygon class="cls-1" points="3.04 33.5 3.04 33.41 3.06 33.43 3.04 33.5 3.04 33.5"/><path class="cls-1" d="M3,33l.2.14a1.07,1.07,0,0,1,1.08-.42A6,6,0,0,0,3,31v.67h0a.72.72,0,0,1,.37.39.38.38,0,0,1-.39.09V33Z"/><path class="cls-1" d="M3,30.71l.05,0L3,30.52v.19Z"/><path class="cls-1" d="M3,26.54A.54.54,0,0,0,3,26H3v.6Z"/><path class="cls-1" d="M3,19.2c.26-.34.79-.5.67-1,0-.2-.3-.1-.47-.16s.23-.54-.13-.77l-.07,0Z"/><path class="cls-1" d="M3,12.82v2.58a2.63,2.63,0,0,1-.45-1.14A1.86,1.86,0,0,1,3,12.82Z"/><path class="cls-1" d="M3,16.1c-.23-.08-.31-.37-.38-.59-.15-.42-.23-1-.74-1-.73,0-.41,1.4-.38,1.83,0,.59-.21-.08-.45.1a1.12,1.12,0,0,0-.27,1.2,1.8,1.8,0,0,0,.44.6,2.06,2.06,0,0,1,.42-.75,1,1,0,0,1,.39-.52,3.49,3.49,0,0,1-.14-.69A5,5,0,0,1,2,15c.12.53.26,1.16.42,1.73a1.16,1.16,0,0,1,.64,0V16.1Z"/><path class="cls-1" d="M3,17.26V19.2l0,0c-.12.18-.09.56,0,.64v1.23L3,21.24c-.25.45-.13.93-.34,1.34-.31.63-.19-1.56-.24-1.89a10.65,10.65,0,0,1,.43-3.16c-.64.52-.66,3.25-.67,4a5.91,5.91,0,0,1,0,1.14c-.14.07-.89-.73-1-.86a3.38,3.38,0,0,0,.5.69,5,5,0,0,1,1,2.49A1,1,0,0,0,1.48,25c-.33-.46-.67-1-.95-1.41a5,5,0,0,0,.35,1.14,3.39,3.39,0,0,0,.31.51,1.07,1.07,0,0,0-.27.72,2.3,2.3,0,0,0-.15.78,1.33,1.33,0,0,1-.45-.32,1.13,1.13,0,0,1-.16-1.21c.17-.25.63.28.39-.25S-.41,23.3.28,23c.48-.17.76.36,1,.7s.39.51.7.37a.74.74,0,0,0-.22-.5,2.85,2.85,0,0,1-1-1c-.2-.4-.42-1.5.17-1.7.2,0,.15.29.29.38.45-.13-.48-1.67.26-2,.12-.05.24.11.3.24.15-.48-.4-1.17.11-1.61.32.07.14-.43.34-.55A.89.89,0,0,1,3,17.26Z"/><path class="cls-1" d="M3,22a7,7,0,0,0-.25,2.14A9.16,9.16,0,0,0,3,25.26V22Z"/><path class="cls-1" d="M3,25.94c-.11-.14-.31,0-.48,0s0-.59-.38-.68a.84.84,0,0,0-.74.35c-.15.18.18.59-.14.64-.33.6.42,1.05.44,1.56-.1-.1-.26-.22-.36-.12-.58.56.8,1.69.42,2-.16,0-.21-.3-.4-.26-.48.4.09,1.35.41,1.66A2.75,2.75,0,0,0,3,31.69V31a3,3,0,0,0-.47-.31,3.3,3.3,0,0,1-.7-.47A4.64,4.64,0,0,0,3,30.71v-.19a5.72,5.72,0,0,0-.37-.88c-.25-.74-1.14-3.31-.71-4a10.64,10.64,0,0,0,.65,3.12c.07.14.25.69.43,1.15V27.74c-.16.1-.37-.33-.31-.58A2.92,2.92,0,0,1,3,26.54v-.6Z"/><path class="cls-1" d="M3,32.18V33c-.42-.29-.84-.61-1.21-.89a4.91,4.91,0,0,0,.71.95,3.35,3.35,0,0,0,.5.4v.08a1.08,1.08,0,0,0,0,.59v.84a1.18,1.18,0,0,1-.47-.14A1.11,1.11,0,0,1,2,33.71c.07-.29.68,0,.28-.38s-1.43-1.17-.87-1.64c.39-.33.83.07,1.21.3A1.85,1.85,0,0,0,3,32.18Z"/></g></g></svg>