<svg xmlns="http://www.w3.org/2000/svg" viewBox="0 0 41.76 41.76"><defs><style>.cls-1{fill:#fefefe;fill-rule:evenodd;}</style></defs><title>Ресурс 31</title><g id="Слой_2" data-name="Слой 2"><g id="_1" data-name="1"><path class="cls-1" d="M41.23,23.76V22.38a10.62,10.62,0,0,0,0-3V18a6.44,6.44,0,0,1,.53,2.87,6.44,6.44,0,0,1-.53,2.88Z"/><path class="cls-1" d="M41.23,18v1.38a2.49,2.49,0,0,0-.42-1.23h0l-1.69.18q0-.34-.11-.69V15.76a18.81,18.81,0,0,1,.46,2.11L41,17.71l.14.14a1,1,0,0,1,.13.15Z"/><path class="cls-1" d="M41.23,22.38v1.38a1,1,0,0,1-.13.15L41,24l-1.49-.15A18.8,18.8,0,0,1,39,26V24.12q.06-.34.11-.69l1.69.18a2.49,2.49,0,0,0,.42-1.23Z"/><path class="cls-1" d="M39,31.23v-.91a3.51,3.51,0,0,0,.49-1.83h0L39,28.27v-.46l.84.38.05.19c.21.73-.51,2.17-.89,2.86Z"/><path class="cls-1" d="M39,14V13.5l.49-.22A3.52,3.52,0,0,0,39,11.44v-.91c.39.69,1.1,2.13.9,2.86l-.05.19L39,14Z"/><path class="cls-1" d="M39,10.53v.91c-.12-.26-.26-.52-.42-.79a10.1,10.1,0,0,0-.79-1.18V8.82A10,10,0,0,1,39,10.44l.05.09Z"/><path class="cls-1" d="M39,13.5V14l-.52.23q.29.77.52,1.57v1.88A18.28,18.28,0,0,0,38,14L39,13.5Z"/><path class="cls-1" d="M39,24.12V26q-.22.8-.52,1.57l.52.23v.46L38,27.79A18.31,18.31,0,0,0,39,24.12Z"/><path class="cls-1" d="M39,30.32v.91l-.05.09a9.94,9.94,0,0,1-1.16,1.62v-.65a10.1,10.1,0,0,0,.79-1.18c.16-.27.3-.54.42-.79Z"/><path class="cls-1" d="M37.81,8.82v.65a2.62,2.62,0,0,0-1-.92h0l-1.38,1q-.48-.61-1-1.18V7.76Q35,8.34,35.48,9l1.21-.88.19,0a2.15,2.15,0,0,1,.93.67Z"/><path class="cls-1" d="M37.81,32.29v.65a2.16,2.16,0,0,1-.93.67l-.19,0-1.21-.88Q35,33.42,34.4,34v-.61q.52-.57,1-1.17l1.38,1a2.62,2.62,0,0,0,1-.92Z"/><path class="cls-1" d="M34.4,28.22v-.93a15,15,0,0,0,0-12.82v-.93a15.4,15.4,0,0,1,0,14.68Z"/><path class="cls-1" d="M34.4,7.76a18.92,18.92,0,0,0-1.61-1.48l.88-1.21,0-.19c-.19-.77-1.65-1.71-2.3-2.08A10.06,10.06,0,0,0,29.55,2v.44a9.45,9.45,0,0,1,1.56.74A5,5,0,0,1,33.21,5l-1,1.38a18.51,18.51,0,0,1,2.19,2V7.76Z"/><path class="cls-1" d="M34.4,13.54v.93a15,15,0,0,0-4.85-5.79V8.17a15.47,15.47,0,0,1,4.85,5.37Z"/><path class="cls-1" d="M34.4,27.29v.93a15.46,15.46,0,0,1-4.85,5.37v-.51a15,15,0,0,0,4.85-5.79Z"/><path class="cls-1" d="M34.4,33.39a18.56,18.56,0,0,1-2.19,2l1,1.38h0a5,5,0,0,1-2.1,1.82,9.48,9.48,0,0,1-1.56.74v.44A10.07,10.07,0,0,0,31.32,39c.64-.37,2.1-1.32,2.3-2.08l0-.19-.88-1.21A19,19,0,0,0,34.4,34v-.61Z"/><path class="cls-1" d="M29.55,2v.44a2.11,2.11,0,0,0-1.06-.17h0L27.79,3.8A18.17,18.17,0,0,0,26,3.19V2.75q.79.22,1.55.51l.61-1.36.19-.05A2.22,2.22,0,0,1,29.55,2Z"/><path class="cls-1" d="M29.55,8.17v.51A14.93,14.93,0,0,0,26,6.82V6.38a15.34,15.34,0,0,1,3.53,1.79Z"/><path class="cls-1" d="M29.55,33.08v.51A15.34,15.34,0,0,1,26,35.38v-.45a14.92,14.92,0,0,0,3.53-1.86Z"/><path class="cls-1" d="M29.55,39.34v.44a2.22,2.22,0,0,1-1.18.13l-.19-.05-.61-1.36q-.76.29-1.55.51v-.44A18.24,18.24,0,0,0,27.79,38l.69,1.55a2.11,2.11,0,0,0,1.06-.17Z"/><path class="cls-1" d="M26,2.75v.44q-.81-.23-1.65-.4V2.36q.83.16,1.65.39Z"/><path class="cls-1" d="M26,6.38v.45a14.82,14.82,0,0,0-1.65-.5V5.9A15.28,15.28,0,0,1,26,6.38Z"/><path class="cls-1" d="M26,34.94v.45a15.28,15.28,0,0,1-1.65.48v-.43a14.86,14.86,0,0,0,1.65-.5Z"/><path class="cls-1" d="M26,38.57V39q-.81.23-1.65.39V39q.84-.16,1.65-.4Z"/><path class="cls-1" d="M24.37,2.36v.43l-.94-.16L23.61.95h0A3.11,3.11,0,0,0,22,.48V.06a3.44,3.44,0,0,1,1.89.6L24,.8l-.16,1.48.48.08Z"/><path class="cls-1" d="M24.37,5.9v.43A14.94,14.94,0,0,0,22,6V5.54a15.33,15.33,0,0,1,2.35.36Z"/><path class="cls-1" d="M24.37,35.43v.43a15.33,15.33,0,0,1-2.35.36V35.8a14.93,14.93,0,0,0,2.35-.37Z"/><path class="cls-1" d="M24.37,39v.43l-.48.08L24,41l-.14.14a3.44,3.44,0,0,1-1.89.6v-.42a3.11,3.11,0,0,0,1.59-.47h0l-.18-1.69.94-.16Z"/><path class="cls-1" d="M22,.06V.48A10.57,10.57,0,0,0,20.93.42V0c.28,0,.67,0,1.09.06Z"/><path class="cls-1" d="M22,5.54V6q-.54,0-1.09,0V5.5q.55,0,1.09,0Z"/><path class="cls-1" d="M22,35.8v.42q-.54,0-1.09,0v-.42q.55,0,1.09,0Z"/><path class="cls-1" d="M22,41.28v.42c-.42,0-.82.06-1.09.06v-.42A10.65,10.65,0,0,0,22,41.28Z"/><path class="cls-1" d="M20.93,0V.42h0a10.16,10.16,0,0,0-1.4.09V.09A11.31,11.31,0,0,1,20.88,0Z"/><path class="cls-1" d="M20.93,5.5v.42h0c-.47,0-.94,0-1.4.07V5.56c.46,0,.93-.06,1.4-.06Z"/><path class="cls-1" d="M20.93,35.84v.42h0c-.47,0-.94,0-1.4-.06v-.42c.46,0,.93.07,1.4.07Z"/><path class="cls-1" d="M20.93,41.34v.42h0a11.31,11.31,0,0,1-1.4-.09v-.42a10.15,10.15,0,0,0,1.4.09Z"/><path class="cls-1" d="M19.48.09V.51a2.66,2.66,0,0,0-1.33.44l.18,1.69a18.31,18.31,0,0,0-2.65.57V2.77a18.73,18.73,0,0,1,2.19-.49L17.71.8l.14-.14A3,3,0,0,1,19.48.09Z"/><path class="cls-1" d="M19.48,5.56V6a14.89,14.89,0,0,0-3.81.87V6.4a15.3,15.3,0,0,1,3.81-.84Z"/><path class="cls-1" d="M19.48,35.78a14.87,14.87,0,0,1-3.81-.87v.45a15.3,15.3,0,0,0,3.81.84v-.42Z"/><path class="cls-1" d="M19.48,41.25v.42a3,3,0,0,1-1.63-.57L17.71,41l.15-1.49A18.62,18.62,0,0,1,15.68,39v-.44a18.27,18.27,0,0,0,2.65.57l-.18,1.69a2.67,2.67,0,0,0,1.33.44Z"/><path class="cls-1" d="M15.68,2.77v.44q-.87.26-1.71.6l-.69-1.55h0a3.19,3.19,0,0,0-1.66.41V2.21a3.16,3.16,0,0,1,1.77-.36l.19.05.61,1.36q.73-.28,1.49-.5Z"/><path class="cls-1" d="M15.68,6.4v.45a14.94,14.94,0,0,0-4.06,2.28V8.6a15.36,15.36,0,0,1,4.06-2.2Z"/><path class="cls-1" d="M15.68,34.91v.45a15.36,15.36,0,0,1-4.06-2.2v-.53a15,15,0,0,0,4.06,2.28Z"/><path class="cls-1" d="M15.68,38.56V39q-.75-.22-1.49-.5l-.61,1.36-.19.05a3.16,3.16,0,0,1-1.77-.36V39.1a3.19,3.19,0,0,0,1.66.41L14,38q.83.34,1.71.6Z"/><path class="cls-1" d="M11.62,2.21a11.43,11.43,0,0,0-1.18.59c-.64.37-2.1,1.31-2.3,2.08l0,.19L9,6.28A19,19,0,0,0,6.28,9L5.07,8.09l-.19,0A2.16,2.16,0,0,0,4,8.82v.65a2.62,2.62,0,0,1,1-.92H5l1.38,1A18.53,18.53,0,0,1,9.55,6.36L8.55,5a5,5,0,0,1,2.1-1.82,10.73,10.73,0,0,1,1-.5V2.21Z"/><path class="cls-1" d="M11.62,8.6v.53a15,15,0,0,0,0,23.5v.53a15.38,15.38,0,0,1,0-24.56Z"/><path class="cls-1" d="M11.62,39.1a10.78,10.78,0,0,1-1-.5,5,5,0,0,1-2.1-1.82h0l1-1.38a18.54,18.54,0,0,1-3.19-3.19L5,33.21a2.62,2.62,0,0,1-1-.92v.65a2.16,2.16,0,0,0,.93.67l.19,0,1.21-.88A18.93,18.93,0,0,0,9,35.48l-.88,1.21,0,.19c.19.77,1.65,1.71,2.3,2.08a11.49,11.49,0,0,0,1.18.59V39.1Z"/><path class="cls-1" d="M4,8.82v.65a10.13,10.13,0,0,0-.79,1.18c-.16.27-.3.54-.42.79v-.91l.05-.09A10,10,0,0,1,4,8.82Z"/><path class="cls-1" d="M4,32.29v.65A10,10,0,0,1,2.8,31.32l-.05-.09v-.91c.12.26.26.52.42.79A10.07,10.07,0,0,0,4,32.29Z"/><path class="cls-1" d="M2.74,28.27v-.46l.52-.23Q3,26.8,2.74,26V24.12A18.27,18.27,0,0,0,3.8,27.79l-1.06.47Z"/><path class="cls-1" d="M2.74,17.64V15.76q.22-.8.52-1.57L2.74,14V13.5L3.8,14a18.29,18.29,0,0,0-1.06,3.67Z"/><path class="cls-1" d="M2.74,10.53v.91a3.52,3.52,0,0,0-.49,1.83l.49.22V14l-.84-.38-.05-.19c-.21-.73.51-2.17.9-2.86Z"/><path class="cls-1" d="M2.74,15.76v1.88q-.06.34-.11.69L.95,18.15h0a2.5,2.5,0,0,0-.42,1.23V18a1,1,0,0,1,.13-.16l.14-.14,1.48.16a18.8,18.8,0,0,1,.46-2.11Z"/><path class="cls-1" d="M2.74,24.12V26a18.79,18.79,0,0,1-.46-2.11L.8,24l-.14-.14a1,1,0,0,1-.13-.16V22.38a2.5,2.5,0,0,0,.42,1.23l1.69-.18q0,.34.11.68Z"/><path class="cls-1" d="M2.74,27.81v.46l-.49.22h0a3.51,3.51,0,0,0,.49,1.83v.91c-.39-.69-1.1-2.13-.9-2.86l.05-.19.84-.38Z"/><path class="cls-1" d="M.53,18v1.38a10.63,10.63,0,0,0,0,3v1.38A6.45,6.45,0,0,1,0,20.88,6.44,6.44,0,0,1,.53,18Z"/></g></g></svg>