<svg xmlns="http://www.w3.org/2000/svg" viewBox="0 0 5.38 9.56"><defs><style>.cls-1{fill:#fefefe;fill-rule:evenodd;}</style></defs><title>Ресурс 41</title><g id="Слой_2" data-name="Слой 2"><g id="_1" data-name="1"><path class="cls-1" d="M3.8,6.9c.54-1.07.87-2.45,0-4.87V6.9Z"/><path class="cls-1" d="M3.8,9.26V7.71a5.6,5.6,0,0,0,.68-4A6.16,6.16,0,0,1,5.3,7.88,1.65,1.65,0,0,1,3.8,9.26Z"/><path class="cls-1" d="M2.71,8.88c.25-.66.72-1.25,1.09-2V2a17.21,17.21,0,0,0-.89-2,3.86,3.86,0,0,1-.2,1.23V8.88Z"/><path class="cls-1" d="M3.8,7.71V9.26a2,2,0,0,0-.67.26C3,8.84,3.39,8.4,3.8,7.71Z"/><path class="cls-1" d="M2.54,9.56a2.69,2.69,0,0,1,.17-.68V1.23c-.36,1.08-1.1,1.89-1.44,3.06V7.13A6.17,6.17,0,0,0,2.54,9.56Z"/><path class="cls-1" d="M1.27,9.17V8.44a5.25,5.25,0,0,0,.66,1,2.14,2.14,0,0,1-.66-.27Z"/><path class="cls-1" d="M1.27,4.29a4.48,4.48,0,0,0-.18,1.28,6.39,6.39,0,0,0,.18,1.55V4.29Z"/><path class="cls-1" d="M1.27,8.44v.73a3.22,3.22,0,0,1-.4-4.76,5.84,5.84,0,0,0,.4,4Z"/></g></g></svg>