<svg xmlns="http://www.w3.org/2000/svg" viewBox="0 0 26.48 23.55"><defs><style>.cls-1{fill:#fefefe;fill-rule:evenodd;}</style></defs><title>Ресурс 61</title><g id="Слой_2" data-name="Слой 2"><g id="_1" data-name="1"><path class="cls-1" d="M21.91,23.47a1.54,1.54,0,0,0,.5-.31l.66-.59a1.43,1.43,0,0,0,.48-.89,1,1,0,0,0-.26-.85l-1.38-1.45v4.09Z"/><path class="cls-1" d="M21.91,7.58l.27.24a.76.76,0,0,0,.25.15l2.83,1.1a.79.79,0,0,0,.88-.21l.13-.14a.79.79,0,0,0,.12-.9L25,5.11a.77.77,0,0,0-.18-.23l-1.77-1.6c.28-.31.11-.92-.37-1.36a1.58,1.58,0,0,0-.79-.4Z"/><path class="cls-1" d="M21.91,1.52a.65.65,0,0,0-.6.17L19.67.21a.8.8,0,0,0-1.13.06l-.16.18V4.38l.26.24-.26.27v3.7l2-2.37,1.49,1.35V1.52Z"/><path class="cls-1" d="M21.91,19.38v4.09a1.36,1.36,0,0,1-.44.08,1,1,0,0,1-.82-.34l-2.28-2.65V15.68l3.53,3.7Z"/><path class="cls-1" d="M18.38.44V4.38L17,3.15A.8.8,0,0,1,17,2L18.38.44Z"/><polygon class="cls-1" points="18.38 4.89 18.38 8.59 16.73 10.51 16.73 6.62 18.38 4.89 18.38 4.89"/><polygon class="cls-1" points="18.38 15.68 18.38 20.56 16.73 18.64 16.73 13.95 18.38 15.68 18.38 15.68"/><polygon class="cls-1" points="16.73 6.62 16.73 10.51 14.38 13.25 14.38 9.09 16.73 6.62 16.73 6.62"/><polygon class="cls-1" points="16.73 13.95 15.82 12.99 14.38 14.66 14.38 15.9 16.73 18.64 16.73 13.95 16.73 13.95"/><polygon class="cls-1" points="14.38 9.09 14.38 13.25 13.29 14.52 13.29 10.24 14.38 9.09 14.38 9.09"/><polygon class="cls-1" points="14.38 14.66 14.38 15.9 13.85 15.28 14.38 14.66 14.38 14.66"/><polygon class="cls-1" points="13.29 10.24 13.29 14.52 11.84 16.2 11.84 11.75 13.29 10.24 13.29 10.24"/><polygon class="cls-1" points="11.84 10.42 12.61 9.62 11.84 8.82 11.84 10.42 11.84 10.42"/><polygon class="cls-1" points="11.84 8.82 11.84 10.42 10.7 11.62 8.04 8.52 8.04 4.83 11.84 8.82 11.84 8.82"/><polygon class="cls-1" points="11.84 11.75 11.84 16.2 8.04 20.64 8.04 15.75 11.84 11.75 11.84 11.75"/><path class="cls-1" d="M8,4.44V.37L9.52,2a.8.8,0,0,1-.06,1.13L8,4.44Z"/><path class="cls-1" d="M8,.37,7.94.26A.8.8,0,0,0,6.81.21L5.18,1.68c-.24-.27-.75-.22-1.2.08V8l.08,0a.76.76,0,0,0,.25-.15l1.76-1.6L8,8.52V4.83l-.2-.21L8,4.44V.37Z"/><path class="cls-1" d="M8,15.75v4.89L5.83,23.21a1,1,0,0,1-.82.34,1.43,1.43,0,0,1-.93-.39L4,23.07V20L8,15.75Z"/><path class="cls-1" d="M4,1.77l-.19.15c-.49.44-.65,1-.37,1.36L1.64,4.88a.77.77,0,0,0-.18.23L.09,7.82a.79.79,0,0,0,.12.9l.13.14a.79.79,0,0,0,.88.21L4,8V1.77Z"/><path class="cls-1" d="M4,20l-.79.83a1,1,0,0,0-.26.85,1.43,1.43,0,0,0,.49.89l.56.51V20Z"/></g></g></svg>